<svg enable-background="new 0 0 50 50" height="50" viewBox="0 0 50 50" width="50" xmlns="http://www.w3.org/2000/svg" xmlns:xlink="http://www.w3.org/1999/xlink"><linearGradient id="a" gradientUnits="userSpaceOnUse" x1="0" x2="50" y1="25" y2="25"><stop offset="0" stop-color="#12c2e9"/><stop offset=".5" stop-color="#c471ed"/><stop offset="1" stop-color="#f64f59"/></linearGradient><circle cx="25" cy="25" fill="url(#a)" r="25"/><path d="m42.4 23.5-.5-.7c0-.4 0-.8 0-.8v-6.8c0-5.2-4.2-9.4-9.4-9.4-1.5 0-2.9.6-4 1.6-1.1 1.1-1.6 2.5-1.6 4v9.6l-1.7 2.5c0 .1-.1.1-.1.2 0-.1-.1-.1-.1-.2l-1.8-2.5v-9.6c0-1.5-.6-2.9-1.6-4-1.1-1.1-2.5-1.6-4-1.6-5.2 0-9.4 4.2-9.4 9.4v7.6l-.6.7c-1.2 1.8-.9 4.3.7 5.8l1 .9v8.1c0 2.8 2.2 5 5 5h2.5c2.8 0 5-2.2 5-5v-7l2.3-2c.3-.3.6-.6.8-1 .2.4.5.7.8 1l2.3 2v7c0 2.8 2.2 5 5 5h2.5c2.8 0 5-2.2 5-5v-8.1l1-.9c1.8-1.5 2.2-4 .9-5.8zm-33-8.4c0-4.5 3.6-8.1 8.1-8.1 1.2 0 2.3.5 3.1 1.3s1.3 1.9 1.3 3.1v7.9l-3.8-5.3v-1.2c0-.6-.2-1.1-.6-1.5-.1-.1-.3-.2-.4-.3s-.1 0-.1-.1c-.1 0-.2-.1-.3-.1-.2 0-.4 0-.6 0-.1 0-.2 0-.3.1s-.1 0-.1.1c0 0-.1 0-.1.1 0 0-.1 0-.1.1l-.2.1s-.1 0-.1.1c-.4.4-.6.9-.6 1.5v1.2l-5 7.1zm11.3 23.2c0 2.1-1.7 3.7-3.8 3.8h-2.5c-2.1 0-3.7-1.7-3.8-3.8v-7l.3.3c.3.3.8.5 1.2.5 1 0 1.8-.8 1.8-1.8 0-.6-.2-1.1-.7-1.5l-2.1-1.9c-.5-.4-.6-1.1-.2-1.7l5.3-7.5 5.3 7.4c.4.5.3 1.2-.2 1.7l-2.1 1.9c-.4.4-.7.9-.7 1.5 0 .3.1.6.2.9.3.6.9 1 1.6 1h.2v6.2zm2.7-10-2.6 2.3c-.1.1-.3.2-.5.1-.2 0-.3-.1-.4-.3 0-.1-.1-.2-.1-.3 0-.2.1-.4.2-.5l2.1-1.9c.9-.9 1.1-2.3.4-3.3l-5.8-8.2c-.1-.2-.3-.3-.5-.3s-.4.1-.5.3l-5.8 8.2c-.7 1.1-.5 2.5.4 3.3l2.1 1.9c.2.1.2.3.2.6 0 .1 0 .2-.1.3-.1.2-.2.3-.4.3s-.3 0-.5-.1l-1.1-1.3-1.3-1.1c-1.2-1.1-1.4-2.8-.5-4.1l6.9-9.7c.1-.1.1-.2.1-.4v-1.4c0-.2.1-.4.2-.6l.1-.1h.1.2.1c.1 0 .1.1.1.1.1.1.2.3.2.6v1.4c0 .1 0 .3.1.4l6.9 9.7c1.1 1.3.8 3.1-.3 4.1zm4.8-16.9c0-1.2.5-2.3 1.3-3.1s1.9-1.3 3.1-1.3c4.5 0 8.1 3.6 8.1 8.1v5.9l-5-7.1v-1.2c0-.6-.2-1.1-.6-1.5 0 0 0 0-.1-.1l-.2-.1-.1-.1s0 0-.1 0-.1-.1-.2-.1-.2-.1-.3-.1c-.2 0-.4 0-.6 0-.1 0-.2 0-.3.1-.1 0-.1 0-.1.1-.2.1-.3.2-.4.3-.4.4-.6.9-.6 1.5v1.2l-3.8 5.3zm11.2 26.9c0 2.1-1.7 3.7-3.8 3.8h-2.5c-2.1 0-3.7-1.7-3.8-3.8v-6.3h.2c.7 0 1.3-.4 1.6-1 .1-.3.2-.6.2-.9 0-.6-.2-1.1-.7-1.5l-2.1-1.9c-.5-.4-.6-1.1-.2-1.7l5.3-7.5 5.3 7.4c.4.5.3 1.2-.2 1.7l-2.1 1.9c-.4.4-.7.9-.7 1.5 0 1 .8 1.8 1.8 1.8.4 0 .9-.2 1.2-.5l.3-.3zm1.5-10-1.3 1.1-1.3 1.2c-.1.1-.3.2-.5.1s-.3-.1-.4-.3c0-.1-.1-.2-.1-.3 0-.2.1-.4.2-.6l2.1-1.9c.9-.9 1.1-2.3.4-3.3l-5.8-8.2c-.1-.2-.3-.3-.5-.3s-.4.1-.5.3l-5.7 8.3c-.7 1.1-.5 2.5.4 3.3l2.1 1.9c.2.1.2.3.2.5 0 .1 0 .2-.1.3-.1.2-.2.3-.4.3s-.3 0-.5-.1l-2.6-2.3c-1.2-1.1-1.4-2.8-.5-4.1l6.9-9.7c.1-.1.1-.2.1-.4v-1.4c0-.2.1-.4.2-.6s.1-.1.1-.1h.1.2.1.1l.1.1c.1.1.2.3.2.6v1.4c0 .1 0 .3.1.4l6.9 9.7c1.1 1.3.9 3.1-.3 4.1z" fill="#fff"/></svg>