<svg enable-background="new 0 0 50 50" height="50" viewBox="0 0 50 50" width="50" xmlns="http://www.w3.org/2000/svg" xmlns:xlink="http://www.w3.org/1999/xlink"><linearGradient id="a" gradientTransform="matrix(1 0 0 -1 0 49.89)" gradientUnits="userSpaceOnUse" x1="0" x2="50" y1="24.89" y2="24.89"><stop offset="0" stop-color="#12c2e9"/><stop offset=".5" stop-color="#c471ed"/><stop offset="1" stop-color="#f64f59"/></linearGradient><circle cx="25" cy="25" fill="url(#a)" r="25"/><g fill="#fff"><path d="m28.9 23.6c-.4 0-.7.3-.7.7s.3.7.7.7.7-.3.7-.7-.4-.7-.7-.7z"/><path d="m14.8 30.8-6.6 8.3c-.2.2-.2.5-.1.7s.3.4.6.4h32.3c.3 0 .5-.1.6-.4.1-.2.1-.5-.1-.7l-6.5-8.3c-.1-.2-.3-.2-.5-.2h-5.7l4.9-7.7c1.2-1.7 1.8-3.7 1.8-5.8 0-5.8-4.7-10.5-10.5-10.5s-10.6 4.6-10.6 10.4c0 2.1.6 4.1 1.8 5.8l4.9 7.7h-5.7c-.2 0-.4.1-.6.3zm-2.4 5.2h4l-2.2 2.8h-4zm9.5-4.1 1.8 2.8h-4.7l2.2-2.8zm6 0h.6l2.2 2.8h-4.7zm3.9 4.1 2.2 2.8h-18.2l2.2-2.8zm3.9 2.8-2.2-2.8h4l2.2 2.8zm.7-4.1h-4l-2.2-2.8h4zm-19.1-12.6c-1-1.5-1.5-3.3-1.5-5.1 0-5.1 4.1-9.2 9.2-9.2s9.2 4.1 9.2 9.2c0 1.8-.5 3.6-1.5 5.1-.4.7-7.3 11.5-7.6 12-1-1.3-7-10.6-7.8-12zm2.3 9.8-2.2 2.8h-4l2.2-2.8z"/><path d="m24.9 23.6c3.6 0 6.6-2.9 6.6-6.6 0-3.6-2.9-6.6-6.6-6.6s-6.6 2.9-6.6 6.6c.1 3.7 3 6.6 6.6 6.6zm0-11.8c2.9 0 5.2 2.4 5.2 5.2 0 2.9-2.4 5.2-5.2 5.2-2.9 0-5.2-2.3-5.2-5.2s2.3-5.2 5.2-5.2z"/><path d="m27.7 25.8c-.3-.2-.7-.1-.9.2l-2.4 4c-.2.3-.1.7.2.9s.7.1.9-.2l2.4-4c.2-.3.1-.7-.2-.9z"/></g></svg>