<svg enable-background="new 0 0 50 50" height="50" viewBox="0 0 50 50" width="50" xmlns="http://www.w3.org/2000/svg" xmlns:xlink="http://www.w3.org/1999/xlink"><linearGradient id="a" gradientTransform="matrix(1 0 0 -1 0 49.89)" gradientUnits="userSpaceOnUse" x1="0" x2="50" y1="24.89" y2="24.89"><stop offset="0" stop-color="#12c2e9"/><stop offset=".5" stop-color="#c471ed"/><stop offset="1" stop-color="#f64f59"/></linearGradient><circle cx="25" cy="25" fill="url(#a)" r="25"/><g fill="#fff"><path d="m33.7 8.1c-.4 0-.6.3-.6.6v2.6h-.4c-.4 0-.7.2-1 .4-.2.2-.4.5-.4.7h-2.5c-.1-1.1-.6-2.1-1.6-2.7l-3.5-2.4c-.4-.3-.8-.3-1.3-.3h-5c-.7 0-1.4.3-2 .8-.4.4-.6.8-.7 1.4h-1-1.4c-.6 0-1.2.3-1.7.6-.5.5-.6 1.1-.6 1.7 0 .5.2 1.1.5 1.4-.5.5-.9 1.1-.9 1.9 0 .9.5 1.9 1.4 2.2-.2.4-.4.7-.4 1.2 0 .9.5 1.8 1.4 2.2-.3.4-.4.8-.4 1.3 0 1 .6 1.9 1.6 2.3.3.1.5.2.8.2h.6.2l12-.2c1 0 1.9-.8 2-1.8h2.5c.1.6.6 1.2 1.4 1.2h2c.6 0 1.1-.4 1.3-.9 0-.1.1-.2.1-.3h3.6c.4 0 .6-.3.6-.6 0-.4-.3-.6-.6-.6h-3.6v-7.1h3.6c.3 0 .5-.2.6-.5.2-.5-.2-.8-.6-.8h-3.6c0-.1 0-.2-.1-.3l1.6-1.6c.1-.1.1-.2.2-.3.1-.2 0-.5-.2-.6-.3-.3-.6-.3-.9 0l-1.7 1.7c-.1 0-.2 0-.4 0h-.4v-2.7c.1-.4-.1-.7-.5-.7zm-5 13c-.3 0-.5.1-.8.4-.2.2-.4.5-.4.8 0 .4-.3.6-.6.6h-11.8c-.1 0-.2 0-.2 0h-.6c-.1 0-.3 0-.4-.1-.4-.2-.6-.5-.6-1 0-.3.1-.5.3-.7s.5-.3.7-.3c.4 0 .6-.3.6-.6s-.3-.6-.6-.6h-1c-.1 0-.3 0-.4-.1-.4-.2-.6-.5-.6-1 0-.3.1-.5.3-.7s.5-.3.7-.3c.4 0 .6-.3.6-.6s-.3-.6-.6-.6h-1.2c-.1 0-.3 0-.4-.1-.4-.2-.6-.5-.6-1 0-.3.1-.5.3-.7s.5-.3.7-.3h.4c.4 0 .6-.3.6-.6 0-.4-.3-.6-.6-.6-.1 0-.3 0-.4-.1-.4-.2-.6-.5-.6-1 0-.3.1-.5.3-.7s.5-.3.7-.3h2.8 5.3c.3 0 .5-.2.6-.5 0-.1 0-.2 0-.2 0-.4-.3-.6-.6-.6h-4.3c.1-.2.2-.3.3-.5.3-.3.6-.5 1-.5h5c.2 0 .3.1.5.2l3.4 2.1c.6.5 1 1.2 1 2.1v.3c0 .2.1.4.2.5s.3.2.5.2h3.2v7.1zm6.2-8.2v.5 8.8c0 .1 0 .1-.1.1h-2c-.1 0-.1 0-.1-.1v-8.8-.5h.1 1 1.1c0-.2 0-.1 0 0z"/><path d="m15.7 27.5v2.7h-.4c-.2 0-.3 0-.4 0l-1.7-1.7c-.3-.3-.6-.3-.9 0-.2.2-.3.5-.2.6s.1.2.2.3l1.7 1.6c-.1.1-.1.2-.1.3h-3.6c-.5 0-.8.4-.6.8.1.3.4.5.6.5h3.6v7.1h-3.6c-.4 0-.6.3-.6.6s.3.6.6.6h3.6c0 .1.1.2.1.3.2.5.6.9 1.3.9h2c.7 0 1.3-.5 1.4-1.2h2.5c.1 1 1 1.8 2 1.8l11.8.1h.2.6c.3 0 .5-.1.8-.2 1-.4 1.6-1.3 1.6-2.3 0-.5-.1-.9-.4-1.3.8-.4 1.4-1.3 1.4-2.2 0-.5-.2-.8-.4-1.2.9-.3 1.4-1.3 1.4-2.2 0-.8-.4-1.4-.9-1.9.4-.4.5-.9.5-1.4 0-.6-.2-1.2-.6-1.7-.5-.4-1.1-.6-1.7-.6h-1.4-1c-.1-.5-.4-1-.7-1.4-.6-.5-1.3-.8-2-.8h-5c-.5 0-.9.1-1.3.4l-3.5 2.4c-1 .6-1.5 1.6-1.6 2.7h-2.5c0-.3-.2-.5-.4-.7-.3-.2-.6-.4-1-.4h-.4v-2.6c0-.4-.3-.6-.6-.6-.2.1-.5.3-.4.7zm3.1 12.1v-7.1h3.2c.2 0 .4-.1.5-.2s.2-.3.2-.5v-.3c0-.9.4-1.6 1-2.1l3.4-2.1c.2-.1.3-.2.5-.2h5c.4 0 .7.2 1 .5.1.2.2.3.3.5h-4.3c-.4 0-.6.3-.6.6v.2c.1.3.4.5.6.5h5.3 2.8c.3 0 .5.1.7.3s.3.5.3.7c0 .5-.3.8-.6 1-.1.1-.3.1-.4.1-.4 0-.6.3-.6.6 0 .4.3.6.6.6h.4c.3 0 .5.1.7.3s.3.5.3.7c0 .5-.3.8-.6 1-.1.1-.3.1-.4.1h-1.2c-.4 0-.6.3-.6.6 0 .4.3.6.6.6s.5.1.7.3.3.5.3.7c0 .5-.3.8-.6 1-.1.1-.3.1-.4.1h-1c-.4 0-.6.3-.6.6s.3.6.6.6.5.1.7.3.3.5.3.7c0 .5-.3.8-.6 1-.1.1-.3.1-.4.1h-.9s-.1 0-.2 0h-11.7c-.4 0-.6-.3-.6-.6 0-.4-.2-.6-.4-.8-.3-.3-.5-.4-.8-.4zm-3.7-7.9h1.1 1 .1v.5 8.8c0 .1 0 .1-.1.1h-2c-.1 0-.1 0-.1-.1v-8.8-.5c0-.1 0-.2 0 0z"/></g></svg>