<svg enable-background="new 0 0 50 50" height="50" viewBox="0 0 50 50" width="50" xmlns="http://www.w3.org/2000/svg" xmlns:xlink="http://www.w3.org/1999/xlink"><linearGradient id="a" gradientTransform="matrix(1 0 0 -1 0 49.89)" gradientUnits="userSpaceOnUse" x1="0" x2="50" y1="24.89" y2="24.89"><stop offset="0" stop-color="#12c2e9"/><stop offset=".5" stop-color="#c471ed"/><stop offset="1" stop-color="#f64f59"/></linearGradient><circle cx="25" cy="25" fill="url(#a)" r="25"/><g fill="#fff"><path d="m43.4 14.3-6.8-5.4-6.1-2.9s0 0-.1 0 0 0-.1 0 0 0-.1 0h-.1-10-.1s0 0-.1 0 0 0-.1 0 0 0-.1 0l-6.1 2.9-6.8 5.3c-.2.1-.3.3-.3.6v11.4c0 .4.3.7.7.7h6v15.5c0 .4.3.7.7.7h22.2c.4 0 .7-.3.7-.7v-15.3h6c.4 0 .7-.3.7-.7v-11.6c.1-.1 0-.4-.1-.5zm-18.8-7h.8v1.7h-.8zm-3.9 0h2.4v2.4c0 .4.3.7.7.7h2.3c.4 0 .7-.3.7-.7v-2.4h2.4v1.9c0 2.4-1.9 4.3-4.3 4.3s-4.3-1.9-4.3-4.3v-1.9zm-7.5 18.4h-5.3v-.8h5.3zm22.2 15.9h-20.8v-.8h20.8zm6.8-15.9h-5.3v-.8h5.3zm0-2.3h-5.3v-.1c0-.4-.3-.7-.7-.7s-.7.3-.7.7v16.2h-20.9v-21.1c0-.4-.3-.7-.7-.7s-.7.3-.7.7v5h-5.3v-8.1l5.3-4.2v1.5c0 .4.3.7.7.7s.7-.3.7-.7v-2.6l4.7-2.2v1.5c0 3.2 2.6 5.7 5.7 5.7s5.7-2.6 5.7-5.7v-1.6l4.7 2.2v7.5c0 .4.3.7.7.7s.7-.3.7-.7v-6.5l5.3 4.2z"/><path d="m31.4 24.7c-.1-.2-.3-.4-.6-.4h-2.5l2-5c.1-.2.1-.4-.1-.6-.1-.2-.3-.3-.6-.3h-9.5c-.3 0-.5.2-.6.4l-2.9 8.3c-.1.2 0 .4.1.6s.3.3.5.3h2.8l-1.3 5.1c-.1.2 0 .4.1.6s.3.3.5.3h3.7c.1 0 .2 0 .3-.1l7.6-8.3c.5-.4.6-.7.5-.9zm-13.2 2 2.4-7h2.3l-2.4 7zm4.4 5.9h-2.3l1.2-4.6h2.3zm1.8-1.6.9-3.3c.1-.2 0-.4-.1-.6s-.3-.3-.5-.3h-2.7l2.4-7h4.3l-2 5c-.1.2-.1.4.1.6.1.2.3.3.6.3h1.9z"/></g></svg>