<svg enable-background="new 0 0 50 50" height="50" viewBox="0 0 50 50" width="50" xmlns="http://www.w3.org/2000/svg" xmlns:xlink="http://www.w3.org/1999/xlink"><linearGradient id="a" gradientTransform="matrix(1 0 0 -1 0 49.89)" gradientUnits="userSpaceOnUse" x1="0" x2="50" y1="24.89" y2="24.89"><stop offset="0" stop-color="#12c2e9"/><stop offset=".5" stop-color="#c471ed"/><stop offset="1" stop-color="#f64f59"/></linearGradient><circle cx="25" cy="25" fill="url(#a)" r="25"/><g fill="#fff"><path d="m22.1 9.5c-5 0-9.5 3.4-10.8 8.3-.1.4.1.8.5.9h.2c.3 0 .6-.2.7-.5 1.2-4.3 5-7.2 9.5-7.2.4 0 .7-.3.7-.7s-.5-.8-.8-.8z"/><path d="m22.1 18.4c-1.3 0-2.4 1.1-2.4 2.4s1.1 2.4 2.4 2.4 2.4-1.1 2.4-2.4c-.1-1.4-1.1-2.4-2.4-2.4zm0 3.3c-.5 0-1-.4-1-1 0-.5.4-1 1-1 .5 0 1 .4 1 1-.1.6-.5 1-1 1z"/><path d="m22.1 13.7c-3.9 0-7.1 3.2-7.1 7.1s3.2 7.1 7.1 7.1 7.1-3.2 7.1-7.1-3.2-7.1-7.1-7.1zm0 12.7c-3.1 0-5.7-2.5-5.7-5.7s2.5-5.7 5.7-5.7c3.1 0 5.7 2.5 5.7 5.7s-2.6 5.7-5.7 5.7z"/><path d="m25.3 12.1v-.1s0-.1-.1-.1l-.1-.1-.1-.1s-.1 0-.1-.1h-.1c-.1 0-.2 0-.3 0h-.1s-.1 0-.1.1l-.1.1-.1.1s0 .1-.1.1v.1.1.1.1s0 .1.1.1l.1.1.1.1s.1 0 .1.1h.1.1.1.1s.1 0 .1-.1l.1-.1.1-.1s0-.1.1-.1v-.1-.1c.1 0 .1-.1.1-.1z"/><path d="m41.8 37.3c.6-5 .4-10.3.3-10.7 0-1.6-1.3-2.9-2.9-2.9v-1.9c0-1-.8-1.8-1.8-1.8h-.7c0-.1 0-.2 0-.3-.7-7.7-7-13.6-14.6-13.6-8.1 0-14.7 6.6-14.7 14.6 0 3.4 1.2 6.6 3.1 9.1v6.4 2.3 1c0 .4.3.7.7.7h3.3c.4 0 .7-.3.7-.7v-3.3c0-.4-.3-.7-.7-.7h-2.5v-4.1c2.6 2.5 6.2 4 10.1 4 1.6 0 3.1-.2 4.5-.7l.2 2.6c-.6.5-1 1.3-1 2.1 0 1.5 1.2 2.7 2.7 2.7h11.7c1.5 0 2.7-1.2 2.7-2.7-.1-.9-.5-1.7-1.1-2.1zm-6.6-17.5v1 6.2 2.2c0 .4.3.7.7.7s.7-.3.7-.7v-7.9h.7c.2 0 .4.2.4.4v2.1.5 5.1c0 .4.3.7.7.7s.7-.3.7-.7v-4.4c.8 0 1.5.7 1.5 1.5 0 .1.3 5.3-.3 10.1-.1 0-.2 0-.3 0h-11.6c-.1 0-.2 0-.3 0l-.1-2.6-.1-1.5-.1-1.5c0-.7.6-1.2 1.3-1.2h.4v1.9.7c0 .3.2.6.5.7h.2c.4 0 .7-.3.7-.6v-.1-1.7-1.2-.1-.1-7.1c0-.4.3-.8.8-.8h.7v7.9.2c0 .4.3.7.7.7s.7-.3.7-.7v-2.3-6.5-.7c0-.5.4-.8.8-.8.2 0 .5.2.6.6zm-21.3 17.1v1.9h-1.9v-.3-1.6zm12.5-5.8.1 2.1c-1.4.5-2.9.8-4.4.8-4 0-7.6-1.8-10.1-4.7v-4.7l1.1-.6c.3-.2.5-.6.3-.9s-.6-.5-.9-.3l-1.5.7c-.2.1-.4.4-.4.6v3.1c-1.1-1.9-1.7-4.2-1.7-6.6 0-7.3 5.9-13.2 13.2-13.2 6.3 0 11.6 4.4 12.9 10.3-.2 0-.3-.1-.5-.1-1.2 0-2.2.9-2.2 2.1h-.7c-1.2 0-2.2 1-2.2 2.2v6.4h-.4c-1.5.1-2.6 1.3-2.6 2.8zm13.7 9.6h-11.7c-.7 0-1.3-.6-1.3-1.3 0-.5.3-.9.7-1.1h12.9c.4.2.7.6.7 1.1 0 .7-.6 1.3-1.3 1.3z"/></g></svg>