<svg enable-background="new 0 0 50 50" height="50" viewBox="0 0 50 50" width="50" xmlns="http://www.w3.org/2000/svg" xmlns:xlink="http://www.w3.org/1999/xlink"><linearGradient id="a" gradientTransform="matrix(1 0 0 -1 0 49.89)" gradientUnits="userSpaceOnUse" x1="0" x2="50" y1="24.89" y2="24.89"><stop offset="0" stop-color="#12c2e9"/><stop offset=".5" stop-color="#c471ed"/><stop offset="1" stop-color="#f64f59"/></linearGradient><circle cx="25" cy="25" fill="url(#a)" r="25"/><path d="m44.8 23.7h-.7c-.1-1.1-.3-2.2-.9-3.2 0 0 0 0 0-.1-1-1.8-3.2-3.1-7.7-3.1h-21.4c-4.5.1-6.7 1.3-7.7 3.1v.1c-.5 1-.8 2.1-.9 3.2h-.8c-.3 0-.7.3-.7.7s.3.7.7.7h.7v.2c0 3.6 2.1 7.4 8 7.4 2.1 0 4.4-1.4 6.2-3.1 0 0 0 0 .1-.1 1.2-1.1 2.2-2.4 3-3.9.6-1.2.8-2.5.5-3.8.4-.3 1-.5 1.5-.5s1.1.1 1.5.5c-.3 1.3-.1 2.7.5 3.8.8 1.5 1.8 2.8 3 3.9 0 0 0 0 .1.1 1.9 1.7 4.1 3.1 6.2 3.1 5.9 0 8-3.8 8-7.4 0-.1 0-.2 0-.2h.7c.4 0 .7-.3.7-.7.1-.4-.2-.7-.6-.7zm-3.7-3.6h-12c1.3-.9 3.3-1.4 6-1.4 3 0 4.9.5 6 1.4zm-13.2 1.4h14.3c.2.4.3.9.4 1.4h-15c-.1-.5.1-1 .3-1.4zm.2 3.5c-.1-.3-.2-.5-.3-.8h15v1.1.3h-14.4c-.1-.2-.2-.4-.3-.6zm-6.6 0c-.1.2-.2.4-.3.6h-14.4c0-.1 0-.2 0-.3 0-.4 0-.8 0-1.1h15c-.1.3-.2.6-.3.8zm-14.5-2.2c.1-.5.2-.9.4-1.4h14.3c.2.4.3.9.3 1.4zm1.5-2.7c1.1-.9 2.9-1.4 6-1.4 2.7 0 4.8.5 6 1.4zm.1 9.7h8.7c-1.1.9-2.4 1.4-3.8 1.6-2.4-.1-3.9-.8-4.9-1.6zm10.3-1.4h-11.4c-.2-.5-.4-.9-.5-1.4h13.2c-.4.5-.8.9-1.3 1.4zm5.9-8.4c-.7 0-1.4.2-2 .5 0 0 0 0 0-.1-.5-.7-1.1-1.3-1.8-1.7h7.8c-.7.4-1.4 1-1.8 1.7v.1c-.8-.4-1.5-.5-2.2-.5zm4.6 7h13.2c-.1.5-.3.9-.5 1.4h-11.5c-.4-.5-.8-.9-1.2-1.4zm6.7 4.3c-1.4-.1-2.7-.7-3.8-1.6h8.7c-1 .9-2.6 1.6-4.9 1.6z" fill="#fff"/></svg>