<svg enable-background="new 0 0 50 50" height="50" viewBox="0 0 50 50" width="50" xmlns="http://www.w3.org/2000/svg" xmlns:xlink="http://www.w3.org/1999/xlink"><linearGradient id="a" gradientTransform="matrix(1 0 0 -1 0 49.89)" gradientUnits="userSpaceOnUse" x1="0" x2="50" y1="24.89" y2="24.89"><stop offset="0" stop-color="#12c2e9"/><stop offset=".5" stop-color="#c471ed"/><stop offset="1" stop-color="#f64f59"/></linearGradient><circle cx="25" cy="25" fill="url(#a)" r="25"/><g fill="#fff"><path d="m25.6 6.4c-.4 0-.7.4-.7.7v5.5c0 .4.4.7.7.7.4 0 .7-.4.7-.7v-5.5c.1-.5-.2-.7-.7-.7z"/><path d="m26.2 3.4c-.2-.1-.4-.2-.6-.2s-.4.1-.6.2c-.1.2-.2.4-.2.6s.1.4.2.6c.2.2.4.2.6.2s.4-.1.6-.2c.2-.2.2-.4.2-.6s-.1-.4-.2-.6z"/><path d="m28.3 15.7v-1.6c0-1.3-1-2.3-2.3-2.3h-.7c-1.3 0-2.3 1-2.3 2.3v1.6c-1.7.4-3.2 1-4.5 2-.1 0-.1.1-.2.1-3 2.2-4.9 5.9-4.9 9.9s2 7.6 4.9 9.9l.1.1c2 1.5 4.5 2.3 7.2 2.3 6.8 0 12.3-5.5 12.3-12.3 0-5.9-4.1-10.7-9.6-12zm-10.8 4.9c-.2.9-.4 1.9-.5 2.8l-1.4.4c.4-1.2 1.1-2.3 1.9-3.2zm-2.4 9.5c-.2-.7-.3-1.6-.3-2.4s.1-1.6.3-2.3l1.8-.4c-.1 1.9-.1 3.6 0 5.5zm.6 1.7 1.4.3h.1c.1.9.3 1.9.5 2.8-.9-1-1.6-2-2-3.1zm3.8-13c.9-.7 2-1.1 3.1-1.5-.4 1.8-.7 3.5-.8 5.4-1 .1-2 .2-3.1.4.1-1.4.4-2.9.8-4.3zm-1.1 5.9c1-.2 2-.4 3.2-.5-.1 1-.1 2.1-.1 3.2 0 1.2 0 2.5.1 3.7-1-.1-2.1-.3-3.2-.4-.1-2-.1-3.9 0-6zm1.1 11.9c-.4-1.4-.7-2.8-.8-4.3 1 .2 2 .3 3.1.4.2 1.8.5 3.6.8 5.4-1.2-.3-2.2-.9-3.1-1.5zm16.2-12.8-1.4-.3c-.1 0-.2 0-.2 0-.1-1-.3-2-.5-3 .9.9 1.6 2 2.1 3.3zm-4.1-5c.4 1.5.7 2.9.8 4.4-1-.2-2-.3-3.1-.4-.2-1.8-.5-3.6-.8-5.4 1.2.2 2.2.7 3.1 1.4zm-7.2-4.6c0-.5.4-.8.8-.8h.8c.5 0 .8.4.8.8v1.3c-.4 0-.7-.1-1.2-.1s-.8 0-1.2.1zm-.3 2.8c.5-.1 1-.1 1.5-.1s.9 0 1.4.1c.4 1.9.7 3.7.9 5.6-1.6-.1-3.1-.1-4.7 0 .3-1.9.6-3.8.9-5.6zm2.8 21.4c-.5.1-.8.1-1.3.1s-.9 0-1.5-.1c-.4-1.9-.7-3.7-.9-5.6.7 0 1.6.1 2.3.1s1.5 0 2.2-.1c0 1.9-.3 3.8-.8 5.6zm4.7-1.8c-.9.7-2 1.1-3.1 1.4.4-1.8.7-3.5.8-5.4 1-.1 2-.2 3.1-.4-.1 1.6-.4 3-.8 4.4zm1.1-5.8c-1 .2-2.1.3-3.2.4 0-.2 0-.4 0-.6 0-.4-.3-.7-.7-.8-.4 0-.7.3-.8.7 0 .3 0 .6-.1.7-1.6.1-3.3.1-4.8 0-.2-2.3-.2-4.8 0-7.2 1.6-.1 3.3-.1 4.9 0 0 .3 0 .6.1.9 0 .4.4.7.7.7.4 0 .7-.4.7-.7 0-.2 0-.5 0-.7 1 .1 2 .3 3.2.5.2 2 .2 4 0 6.1zm.8 4.3c.2-1 .4-2 .5-3h.3l1.4-.3c-.6 1.2-1.2 2.2-2.2 3.3zm2.6-5-2 .4c.2-1.9.2-3.7 0-5.5l2 .4c.2.7.3 1.5.3 2.3s-.1 1.7-.3 2.4z"/><path d="m29.3 27.1c-.1-.1-.3-.1-.5-.1s-.4.1-.6.2-.2.3-.2.5.1.4.2.6c.2.2.4.2.6.2s.4-.1.6-.2c.2-.2.2-.4.2-.6s-.1-.4-.3-.6z"/><path d="m13.2 36.2c-1.2-.3-2-1.2-2.3-2.4-.1-.4-.4-.6-.7-.6s-.7.3-.7.6c-.4 1.1-1.2 2-2.4 2.4-.4.1-.6.4-.6.7s.3.7.6.7c1.2.3 2 1.2 2.3 2.4.1.4.4.6.7.6s.7-.3.7-.6c.3-1.2 1.2-2 2.3-2.4.4-.1.6-.4.6-.7.1-.3-.2-.7-.5-.7zm-3.1 1.8c-.3-.5-.7-.8-1.2-1.2.5-.3.8-.7 1.2-1.2.3.5.7.8 1.2 1.2-.5.4-.9.8-1.2 1.2z"/><path d="m19.5 13.3c0-.1 0-.1 0 0-.1-.1-.1-.1 0 0l-2.7-5.6c-.1-.2-.3-.4-.5-.4-.2-.1-.4 0-.6.1l-5.7 3.2c-.4.2-.5.7-.3.9l1.6 3.4c-.4 0-.7.1-1.1.3-.6.3-1.1.7-1.4 1.3-.4.7-.5 1.3-.2 1.9s.8.9 1.6 1h.5c.5 0 .9-.1 1.4-.3.6-.3 1.1-.7 1.4-1.3s.4-1.3.1-1.8v-.1s0 0 0-.1l-2-4.4 4.4-2.5 1.5 3.2c-.4 0-.7.1-1.1.3-.6.3-1.1.7-1.4 1.3-.4.7-.5 1.3-.2 1.9.4.7 1.1 1.1 2 1.1.5 0 .9-.1 1.4-.3 1.2-.7 1.8-2.1 1.3-3.1zm-7.9 3.1h.2c.1 0 .3.1.4.3s0 .4-.1.5c-.1.3-.4.5-.7.7s-.7.2-1 .2c-.2 0-.4-.1-.5-.2 0-.1 0-.3.1-.5.2-.3.5-.6.7-.7.4-.3.7-.3.9-.3zm5.8-1.5c-.7.3-1.3.2-1.4-.1 0-.1 0-.3.1-.5.2-.3.5-.6.7-.7.3-.1.5-.2.7-.2.3 0 .6.1.7.3.1.5-.2 1-.8 1.2z"/><path d="m40.2 12.1c-1.2-.3-2-1.2-2.3-2.4-.1-.4-.4-.6-.7-.6s-.7.3-.7.6c-.3 1.2-1.2 2-2.3 2.4-.4.1-.6.4-.6.7s.3.7.6.7c1.2.3 2 1.2 2.3 2.4.1.4.4.6.7.6s.7-.3.7-.6c.3-1.2 1.2-2 2.3-2.4.4-.1.6-.4.6-.7s-.2-.6-.6-.7zm-3 1.9c-.3-.5-.7-.8-1.2-1.2.5-.3.8-.7 1.2-1.2.3.5.7.8 1.2 1.2-.5.4-.9.7-1.2 1.2z"/><path d="m44.3 32.5c-1.4-.1-3.3-.8-3.4-.8-.2-.1-.5-.1-.7 0s-.4.3-.4.6l-.6 4.4c-.4-.2-.7-.3-1.1-.4-.7-.1-1.4 0-2 .3-.7.4-1.1.9-1.2 1.5-.1.7.2 1.3.7 1.8s1.1.7 1.8.8h.6c1.3 0 2.3-.7 2.5-1.9l.7-5.3c.7.3 1.9.6 2.9.7.4 0 .7-.3.7-.7.2-.7-.1-1-.5-1zm-5.2 6c0 .4-.6.7-1.3.6-.4-.1-.7-.2-.9-.5-.2-.2-.3-.4-.3-.5s.2-.3.4-.4.6-.2.8-.2h.3c.6.3 1 .7 1 1z"/></g></svg>