<?xml version="1.0" encoding="utf-8"?>
<!-- Generator: Adobe Illustrator 23.0.1, SVG Export Plug-In . SVG Version: 6.00 Build 0)  -->
<svg version="1.1" id="Capa_1" xmlns="http://www.w3.org/2000/svg" xmlns:xlink="http://www.w3.org/1999/xlink" x="0px" y="0px"
	 width="50px" height="50px" viewBox="0 0 50 50" style="enable-background:new 0 0 50 50;" xml:space="preserve">
<style type="text/css">
	.st0{fill:url(#SVGID_1_);}
	.st1{fill:#FFFFFF;}
</style>
<linearGradient id="SVGID_1_" gradientUnits="userSpaceOnUse" x1="0" y1="24.89" x2="50" y2="24.89" gradientTransform="matrix(1 0 0 -1 0 49.89)">
	<stop  offset="0" style="stop-color:#12C2E9"/>
	<stop  offset="0.5" style="stop-color:#C471ED"/>
	<stop  offset="1" style="stop-color:#F64F59"/>
</linearGradient>
<circle class="st0" cx="25" cy="25" r="25"/>
<g>
	<path class="st1" d="M22.1,24.1c0.1,0,0.2,0.1,0.3,0.1s0.2,0,0.3-0.1l6.1-3.9c0.2-0.1,0.3-0.3,0.3-0.5s-0.1-0.4-0.3-0.5l-6.1-3.9
		c-0.2-0.1-0.4-0.1-0.6,0s-0.3,0.3-0.3,0.5v7.7C21.8,23.8,21.9,24,22.1,24.1z M22.9,16.9l4.5,2.9l-4.5,2.9V16.9z"/>
	<path class="st1" d="M10.2,9.8v30.3H40V9.8L10.2,9.8z M38.9,10.9v18.2H11.3V10.9L38.9,10.9z M11.3,39.1v-8.8h27.6v8.8H11.3z"/>
	<path class="st1" d="M36.1,34.1H22.9V33c0-0.3-0.2-0.6-0.6-0.6c-0.3,0-0.6,0.2-0.6,0.6v1.1h-2.2c-0.3,0-0.6,0.2-0.6,0.6
		c0,0.3,0.2,0.6,0.6,0.6h2.2v1.1c0,0.3,0.2,0.6,0.6,0.6c0.3,0,0.6-0.2,0.6-0.6v-1.1h13.2c0.3,0,0.6-0.2,0.6-0.6S36.5,34.1,36.1,34.1
		z"/>
	<path class="st1" d="M14.1,32.4c-0.3,0-0.6,0.2-0.6,0.6v3.3c0,0.3,0.2,0.6,0.6,0.6s0.6-0.2,0.6-0.6V33
		C14.6,32.7,14.4,32.4,14.1,32.4z"/>
	<path class="st1" d="M16.3,32.4c-0.3,0-0.6,0.2-0.6,0.6v3.3c0,0.3,0.2,0.6,0.6,0.6c0.3,0,0.6-0.2,0.6-0.6V33
		C16.8,32.7,16.6,32.4,16.3,32.4z"/>
</g>
</svg>
