<svg enable-background="new 0 0 50 50" height="50" viewBox="0 0 50 50" width="50" xmlns="http://www.w3.org/2000/svg" xmlns:xlink="http://www.w3.org/1999/xlink"><linearGradient id="a" gradientTransform="matrix(1 0 0 -1 0 49.89)" gradientUnits="userSpaceOnUse" x1="0" x2="50" y1="24.89" y2="24.89"><stop offset="0" stop-color="#12c2e9"/><stop offset=".5" stop-color="#c471ed"/><stop offset="1" stop-color="#f64f59"/></linearGradient><circle cx="25" cy="25" fill="url(#a)" r="25"/><g fill="#fff"><path d="m15.5 34.5h1.9c.4 0 .7-.3.7-.7s-.3-.7-.7-.7h-1.9c-.4 0-.7.3-.7.7s.3.7.7.7z"/><path d="m15.5 30.7h1.9c.4 0 .7-.3.7-.7s-.3-.7-.7-.7h-1.9c-.4 0-.7.3-.7.7s.3.7.7.7z"/><path d="m15.5 26.9h1.9c.4 0 .7-.3.7-.7s-.3-.7-.7-.7h-1.9c-.4 0-.7.3-.7.7s.3.7.7.7z"/><path d="m17.4 21.7h-1.9c-.4 0-.7.3-.7.7s.3.7.7.7h1.9c.4 0 .7-.3.7-.7s-.3-.7-.7-.7z"/><path d="m25.1 21.7h-1.9c-.4 0-.7.3-.7.7s.3.7.7.7h1.9c.4 0 .7-.3.7-.7s-.3-.7-.7-.7z"/><path d="m23.2 26.9h1.9c.4 0 .7-.3.7-.7s-.3-.7-.7-.7h-1.9c-.4 0-.7.3-.7.7s.3.7.7.7z"/><path d="m32.7 29.3c-.4 0-.7.3-.7.7v3.8c0 .4.3.7.7.7h3.8c.4 0 .7-.3.7-.7s-.3-.7-.7-.7h-3.1v-3.1c0-.4-.3-.7-.7-.7z"/><path d="m30.8 23.1h1.9c.4 0 .7-.3.7-.7s-.3-.7-.7-.7h-1.9c-.4 0-.7.3-.7.7s.3.7.7.7z"/><path d="m14.8 12.1h-5.1c-.4 0-.7.3-.7.7v24.9c0 .4.3.7.7.7h16l.1.1c1.6 2.3 4.1 3.7 6.9 3.7 4.6 0 8.3-3.7 8.3-8.3 0-1.9-.7-3.8-1.9-5.2l-.1-.1v-15.8c0-.4-.3-.7-.7-.7h-5.1v-1.3c0-.4-.3-.7-.7-.7s-.7.3-.7.7v1.3h-4.3v-1.3c0-.4-.3-.7-.7-.7s-.7.3-.7.7v1.3h-4.3v-1.3c0-.4-.3-.7-.7-.7s-.7.3-.7.7v1.3h-4.3v-1.3c0-.4-.3-.7-.7-.7s-.7.3-.7.7v1.3zm10.9 17.2-.1.2-.2-.1c-.1-.1-.2-.1-.3-.1h-1.9c-.4 0-.7.3-.7.7s.3.7.7.7h1.8l-.1.3c-.2.6-.4 1.2-.4 1.9v.2h-1.2c-.4 0-.7.3-.7.7s.3.7.7.7h1.2v.2c.1.6.2 1.3.4 1.9l.1.3h-14.6v-17.7h27.3v8l-.4-.3c-1.4-.9-3-1.4-4.6-1.4-2.8 0-5.5 1.4-7 3.8zm13.9 4.5c0 3.8-3.1 6.9-6.9 6.9s-6.9-3.1-6.9-6.9 3.1-6.9 6.9-6.9 6.9 3.1 6.9 6.9zm-24.1-18.4c.4 0 .7-.3.7-.7v-1.2h4.3v1.2c0 .4.3.7.7.7s.7-.3.7-.7v-1.2h4.3v1.2c0 .4.3.7.7.7s.7-.3.7-.7v-1.2h4.3v1.2c0 .4.3.7.7.7s.7-.3.7-.7v-1.2h4.4v4.3h-27.3v-4.3h4.4v1.2c0 .4.3.7.7.7z"/></g></svg>