<svg enable-background="new 0 0 50 50" height="50" viewBox="0 0 50 50" width="50" xmlns="http://www.w3.org/2000/svg" xmlns:xlink="http://www.w3.org/1999/xlink"><linearGradient id="a" gradientTransform="matrix(1 0 0 -1 0 49.89)" gradientUnits="userSpaceOnUse" x1="0" x2="50" y1="24.89" y2="24.89"><stop offset="0" stop-color="#12c2e9"/><stop offset=".5" stop-color="#c471ed"/><stop offset="1" stop-color="#f64f59"/></linearGradient><circle cx="25" cy="25" fill="url(#a)" r="25"/><g fill="#fff"><path d="m24.9 42.9c4.1 0 7.8-2.4 9-5.5l5.8 1.6c.2-.5.4-.9.6-1.3l-6-1.7c0-.1 0-.1 0-.3 1.5-1.1 2.4-2.4 2.4-3.9 0-.4 0-.6-.1-.9 3.1-.4 5.6-3.1 5.6-6.4 0-2.9-2-5.4-4.8-6.1v-.5c0-3-1.8-5.8-4.6-6.9l-3.4-1.4c-.1-1-.6-2-1.5-2.6l-3.1-2.4v1.5c0 1.3-.1 2.4-.4 3.5l-3-2.3-.8 1.4c-.6 1.5-1.9 2.5-3.4 3-2.8 1-4.8 3.5-5 6.5-2.8.6-4.8 3.1-4.8 6.1 0 3.4 2.5 6 5.6 6.4v1c0 1.5.9 2.8 2.4 3.9v.3l-6 1.8c-.1 0-.1 0-.2.1.3.5.7 1 1 1.5l5.7-1.7c1.3 3.1 4.9 5.3 9 5.3zm0-1.7c-3.6 0-6.6-2-7.6-4.6 2 1 4.8 1.5 7.6 1.5 2.9 0 5.5-.5 7.6-1.5-.8 2.6-3.9 4.6-7.6 4.6zm15.9-16.7c0 2.6-2.1 4.8-4.8 4.8v-1.6c1.8 0 3.1-1.4 3.1-3.1s-1.4-3.1-3.1-3.1c0-.6-.1-1.1-.3-1.6h.3c2.7-.1 4.8 2 4.8 4.6zm-4.7 1.5v-3.1c.9 0 1.6.6 1.6 1.5s-.7 1.6-1.6 1.6zm-22.3.2c-.9 0-1.6-.8-1.6-1.6 0-.9.8-1.6 1.6-1.6zm0-4.8c-1.8 0-3.1 1.4-3.1 3.1 0 1.8 1.4 3.1 3.1 3.1v1.6c-2.8.1-4.8-2-4.8-4.7s2.1-4.8 4.8-4.8h.3c-.2.6-.3 1.2-.3 1.7zm0-3.3c.3-2.1 1.8-4 4-4.8 1.9-.6 3.4-1.9 4.3-3.6l3.3 2.5.4-1.1c.4-1.1.6-2.3.8-3.4l.6.6c.6.4 1 1.1 1 1.9v.5l4.3 1.8c2.3.9 3.6 3 3.6 5.4v.3h-.9c-1.1-2-3.3-3.3-5.6-3.3-1.6 0-3.3.6-4.5 1.9l-.1.1-.1-.1c-1.1-1.3-2.8-1.9-4.5-1.9-2.5 0-4.5 1.4-5.6 3.3zm12.6 4.8c-.6 0-1.1.1-1.6.4-.5-.3-1.1-.4-1.6-.4-1.6 0-3 1.3-3.1 2.9-1.9.4-3.5 1.1-4.8 2v-6.4c0-2.8 2.3-4.9 4.9-4.9 1.3 0 2.5.5 3.5 1.4l1.3 1.3 1.3-1.3c.9-.9 2.1-1.4 3.4-1.4 2.8 0 4.9 2.3 4.9 4.9v6.4c-1.3-.9-2.9-1.5-4.9-2-.3-1.7-1.6-2.9-3.3-2.9zm1.7 2.6c-1-.1-2-.3-3-.3l.4-.4c.1-.1.5-.4 1-.4.7.1 1.2.5 1.6 1.1zm-3.3-.2c-1.1 0-2 .1-3 .3.3-.6.9-1 1.5-1 .4 0 .8.1 1 .4zm-10.3 6.4c0-2.3 4.1-4.8 10.4-4.8s10.4 2.5 10.4 4.8-4.1 4.8-10.4 4.8c-6.2-.1-10.4-2.6-10.4-4.8z"/><path d="m32.5 29.5-1 1.1.3.3c.1.1.1.3.3.4-.9.4-3.1 1.3-7.1 1.3s-6.1-.9-7.1-1.3c0-.1.1-.3.3-.4l.3-.3-1.5-1.1-.3.3c-.4.5-.7 1.2-.7 1.9 0 .6.3 1.4.8 1.9l.4.3.8-.8c1.4.5 3.6 1 6.9 1s5.6-.5 6.9-1l.8.8.3-.3c.5-.5.8-1.3.8-1.9s-.3-1.4-.8-1.9z"/><circle cx="29.7" cy="21.3" r=".8"/><circle cx="20.1" cy="21.3" r=".8"/></g></svg>