<svg enable-background="new 0 0 50 50" height="50" viewBox="0 0 50 50" width="50" xmlns="http://www.w3.org/2000/svg" xmlns:xlink="http://www.w3.org/1999/xlink"><linearGradient id="a" gradientTransform="matrix(1 0 0 -1 0 49.89)" gradientUnits="userSpaceOnUse" x1="0" x2="50" y1="24.89" y2="24.89"><stop offset="0" stop-color="#12c2e9"/><stop offset=".5" stop-color="#c471ed"/><stop offset="1" stop-color="#f64f59"/></linearGradient><circle cx="25" cy="25" fill="url(#a)" r="25"/><g fill="#fff"><path d="m5.3 23.2 4 2.1.1.4-2 4.2c-.1.2-.1.5.1.7l1.3 1.9c.1.2.4.3.6.3l4.4-.7.3.2.7 4.6c0 .2.2.4.4.5l2.2.7c.2.1.5 0 .7-.2l3.2-3.2h.4l3 3.1-.7 1.5c-.1.2-.1.5.1.7l.5.8c.1.2.4.3.6.3l2.7-.4.7.5.5 2.8c0 .2.2.4.4.5l.9.3c.2.1.5 0 .7-.2l2-2h.9l2 2c.2.2.4.2.7.2l.9-.3c.2-.1.4-.3.4-.5l.5-2.8.7-.5 2.7.4c.3 0 .5-.1.6-.3l.5-.8c.1-.2.2-.5.1-.7l-1.1-2.6.3-.9 2.5-1.3c.2-.1.3-.3.3-.6v-.9c0-.2-.1-.5-.4-.6l-2.5-1.4-.3-.9 1.2-2.6c.1-.2.1-.5-.1-.7l-.5-.8c-.1-.2-.4-.3-.6-.3l-2.7.4-.7-.3-.4-2.7c.2-.1.3-.3.3-.5v-2.3c0-.2-.1-.5-.4-.6l-4-2.1-.1-.4 2-4.2c.1-.2.1-.5-.1-.7l-1.3-1.9c-.1-.2-.4-.3-.6-.3l-4.4.7-.3-.2-.9-4.6c0-.2-.2-.4-.4-.5l-2.1-.7c-.2-.1-.5 0-.7.2l-3.2 3.2h-.4l-3.2-3.2c-.2-.2-.4-.2-.7-.2l-2.2.7c-.2.1-.4.3-.4.5l-.7 4.6-.3.2-4.5-.7c-.2 0-.5.1-.6.3l-1.4 1.9c-.1.2-.2.5-.1.7l2 4.2-.1.4-4 2.1c-.2.1-.4.3-.4.6v2.3c.1.2.2.4.4.6zm32.2 3.5 1.1.9c.1.1.3.2.5.1l2.6-.4.1.1-1.2 2.5c-.1.2-.1.3 0 .5l.4 1.4c.1.2.2.3.3.4l2.3 1.3v.1l-2.3 1.3c-.2.1-.3.2-.3.4l-.4 1.4c-.1.2 0 .3 0 .5l1.2 2.5-.1.1-2.6-.4c-.2 0-.4 0-.5.1l-1.1.7c-.1.1-.2.3-.3.4l-.4 2.7h-.1l-1.9-1.9c-.1-.1-.3-.2-.5-.2h-1.4c-.2 0-.4.1-.5.2l-1.9 1.9h-.1l-.4-2.7c0-.2-.1-.3-.3-.4l-1.1-.9c-.1-.1-.3-.2-.5-.1l-2.6.4v-.1l.8-1.6 1.6-.5c.2-.1.4-.3.4-.5l.4-2.7c.4 2.7 2.8 4.6 5.6 4.2 2.7-.4 4.6-2.8 4.2-5.6-.2-1.8-1.5-3.4-3.2-4l-1.5-3.1.1-.4 2.8-1.5.4 2.5c.2.1.3.3.4.4zm-7.4 6.7c0-.4.1-.9.2-1.3l3.5.5c.2 0 .5-.1.6-.3l1.3-1.9c1.6 1.2 1.9 3.4.7 5s-3.4 1.9-5 .7c-.8-.5-1.3-1.5-1.3-2.7zm-23.8-12.8 3.9-2.1c.2-.1.3-.2.3-.4l.3-.9c.1-.2 0-.3 0-.5l-2-4 .9-1.2 4.3.7c.2 0 .4 0 .5-.1l.8-.6c.1-.1.2-.3.3-.4l.7-4.4 1.4-.5 3.1 3.1c.1.1.3.2.5.2h.9c.2 0 .3-.1.5-.2l3.1-3.1 1.4.5.7 4.4c0 .2.1.3.3.4l.8.6c.1.1.3.2.5.1l4.3-.7.9 1.2-2 4c-.1.2-.1.3 0 .5l.3.9c.1.2.2.3.3.4l3.9 2.1v1.5l-3.9 2.1c-.2.1-.3.2-.3.4l-.5.9c-.1.2 0 .3 0 .5l2 4-.9 1.2-4.3-.7c-.2 0-.4 0-.5.1l-.8.6c-.1.1-.2.3-.3.4l-.7 4.4-1.4.5-3.1-3.1c-.1-.1-.3-.2-.5-.2h-.9c-.2 0-.3.1-.5.2l-3.1 3.1-1.4-.5-.6-4.2c0-.2-.1-.3-.3-.4l-.7-.6c-.1-.1-.3-.2-.5-.1l-4.3.7-.9-1.2 2-4c.1-.2.1-.3 0-.5l-.3-1.1c-.1-.2-.2-.3-.3-.4l-3.9-2.1z"/><path d="m21.7 27.4c3.3 0 6-2.7 6-6s-2.7-6-6-6-6 2.7-6 6c-.1 3.3 2.6 6 6 6zm0-10.7c2.6 0 4.7 2.1 4.7 4.7s-2.1 4.7-4.7 4.7-4.7-2.1-4.7-4.7 2.1-4.7 4.7-4.7z"/><path d="m21.7 31c5.3 0 9.6-4.3 9.6-9.6s-4.3-9.6-9.6-9.6-9.6 4.3-9.6 9.6 4.3 9.6 9.6 9.6zm0-17.8c4.5 0 8.2 3.7 8.2 8.2s-3.7 8.2-8.2 8.2-8.2-3.7-8.2-8.2c-.1-4.5 3.6-8.2 8.2-8.2z"/></g></svg>