<svg enable-background="new 0 0 50 50" height="50" viewBox="0 0 50 50" width="50" xmlns="http://www.w3.org/2000/svg" xmlns:xlink="http://www.w3.org/1999/xlink"><linearGradient id="a" gradientTransform="matrix(1 0 0 -1 0 49.89)" gradientUnits="userSpaceOnUse" x1="0" x2="50" y1="24.89" y2="24.89"><stop offset="0" stop-color="#12c2e9"/><stop offset=".5" stop-color="#c471ed"/><stop offset="1" stop-color="#f64f59"/></linearGradient><circle cx="25" cy="25" fill="url(#a)" r="25"/><path d="m40.2 14.4c0-2.4-2-4.3-4.3-4.3h-22.3c-2.4 0-4.3 2-4.3 4.3v22.1c0 2.4 2 4.3 4.3 4.3h10.1v-10.5h-3.7v-4.1h3.6v-4.3c0-2.6 2.2-4.8 4.8-4.8h4.8v4.1h-3.9c-.9 0-1.6.7-1.6 1.6v3.4h5.3l-.6 4h-4.7v10.8h8c2.4 0 4.3-2 4.3-4.3zm-1.4 22.3c0 1.6-1.3 3-3 3h-6.6v-7.9h4.4l1.1-6.9h-5.6v-2.3h5.5v-6.9h-6.2c-3.4 0-6.2 2.8-6.2 6.2v3h-3.6v6.9h3.6v7.9h-8.6c-1.6 0-3-1.3-3-3v-22.3c0-1.6 1.3-3 3-3h22.1c1.6 0 3 1.3 3 3z" fill="#fff" stroke="#fff" stroke-miterlimit="10" stroke-width=".2394"/></svg>