<svg enable-background="new 0 0 50 50" height="50" viewBox="0 0 50 50" width="50" xmlns="http://www.w3.org/2000/svg" xmlns:xlink="http://www.w3.org/1999/xlink"><linearGradient id="a" gradientTransform="matrix(1 0 0 -1 0 49.89)" gradientUnits="userSpaceOnUse" x1="0" x2="50" y1="24.89" y2="24.89"><stop offset="0" stop-color="#12c2e9"/><stop offset=".5" stop-color="#c471ed"/><stop offset="1" stop-color="#f64f59"/></linearGradient><circle cx="25" cy="25" fill="url(#a)" r="25"/><g fill="#fff"><path d="m25 16c-5 0-9 4-9 9s4 9 9 9 9-4 9-9-4-9-9-9zm0 16.6c-4.1 0-7.5-3.4-7.5-7.5s3.4-7.5 7.5-7.5 7.5 3.4 7.5 7.5c.1 4-3.4 7.5-7.5 7.5z"/><path d="m32 15.2c0 1.3 1.2 2.5 2.5 2.5s2.5-1.2 2.5-2.5-1.2-2.5-2.5-2.5c-1.3-.1-2.5 1.1-2.5 2.5zm3.6 0c0 .6-.5 1-1 1s-1-.5-1-1 .5-1 1-1c.5.1 1 .4 1 1z"/><path d="m8.3 32.8c0 4.9 4 8.9 8.9 8.9h15.5c4.9 0 8.9-4 8.9-8.9v-15.6c0-4.9-4-8.9-8.9-8.9h-15.5c-4.9 0-8.9 4-8.9 8.9zm1.5-15.6c0-4.1 3.4-7.5 7.5-7.5h15.5c4.1 0 7.5 3.4 7.5 7.5v15.5c0 4.1-3.4 7.5-7.5 7.5h-15.6c-4.1 0-7.5-3.4-7.5-7.5z"/></g></svg>