<svg enable-background="new 0 0 50 50" height="50" viewBox="0 0 50 50" width="50" xmlns="http://www.w3.org/2000/svg" xmlns:xlink="http://www.w3.org/1999/xlink"><linearGradient id="a" gradientTransform="matrix(1 0 0 -1 0 49.89)" gradientUnits="userSpaceOnUse" x1="0" x2="50" y1="24.89" y2="24.89"><stop offset="0" stop-color="#12c2e9"/><stop offset=".5" stop-color="#c471ed"/><stop offset="1" stop-color="#f64f59"/></linearGradient><circle cx="25" cy="25" fill="url(#a)" r="25"/><path d="m25 6.8c-10.1 0-18.2 8.2-18.2 18.2 0 10.1 8.1 18.2 18.2 18.2s18.2-8.2 18.2-18.2c0-10.1-8.1-18.2-18.2-18.2zm0 34.6c-9 0-16.4-7.4-16.4-16.4s7.4-16.4 16.4-16.4 16.4 7.4 16.4 16.4-7.4 16.4-16.4 16.4zm6.9-24.7-6.9 6.9-6.2-6.9c-.2-.2-.4-.3-.7-.3s-.5.1-.7.3-.3.4-.3.7.1.5.3.7l6.2 6.9-6.9 6.9c-.2.2-.3.4-.3.7s.1.5.3.7c.4.4 1 .4 1.4 0l6.9-6.9 6.2 6.9c.2.2.4.3.7.3s.5-.1.7-.3.3-.4.3-.7-.1-.5-.3-.7l-6.2-6.9 6.9-7c.4-.4.4-1 0-1.4-.4-.2-1-.3-1.4.1z" fill="#fff"/></svg>