<svg enable-background="new 0 0 50 50" height="50" viewBox="0 0 50 50" width="50" xmlns="http://www.w3.org/2000/svg" xmlns:xlink="http://www.w3.org/1999/xlink"><linearGradient id="a" gradientUnits="userSpaceOnUse" x1="0" x2="50" y1="25" y2="25"><stop offset="0" stop-color="#12c2e9"/><stop offset=".5" stop-color="#c471ed"/><stop offset="1" stop-color="#f64f59"/></linearGradient><circle cx="25" cy="25" fill="url(#a)" r="25"/><g fill="#fff"><path d="m40.6 25.5c-.6-1.9-1.6-3.6-3-5.1l-2.5-2.8c-.2-.3-.5-.5-.9-.6v-7.1c0-1.5-1.2-2.7-2.7-2.7h-14c-1.5 0-2.7 1.2-2.7 2.7v7.2c-.3.1-.6.3-.9.6l-2.5 2.8c-1.3 1.5-2.3 3.2-3 5.1-.5 1.5-.7 3-.7 4.6v6.4c0 .4.1.8.2 1.2l1 3.1h5.3v-2.5c0-.6.2-1.1.5-1.6v1.4c0 1.5 1.2 2.7 2.7 2.7h14.1c1.5 0 2.7-1.2 2.7-2.7v-1.4c.3.5.5 1 .5 1.6v2.5h5.3l1-3.1c.1-.4.2-.8.2-1.2v-6.4c.1-1.7-.1-3.2-.6-4.7zm-23.1-17.2h14.1c.9 0 1.6.7 1.6 1.6v1.6h-17.3v-1.6c0-.9.7-1.6 1.6-1.6zm13.6 19.1c-.2-.1-.4-.1-.7-.1-.1 0-.3 0-.4 0 0-1.2-.8-2.3-2-2.6l-1.8-.5v-.2c.7-.5 1.1-1.3 1.1-2.2v-1c0-1.5-1.1-2.7-2.5-2.8-.8-.1-1.5.2-2.1.7s-.9 1.2-.9 2v1.1c0 .8.4 1.6 1.1 2.2v.1l-1.8.5c-1.2.3-2 1.4-2 2.6-.1 0-.3 0-.4 0-.2 0-.5.1-.7.1v-12.5h13v12.6zm-10.4 1.5c-.1-.4-.3-.7-.5-1v-.7c0-.7.5-1.4 1.2-1.6l2.6-.6v-1.6l-.3-.2c-.5-.3-.8-.8-.8-1.4v-1.1c0-.5.2-.9.5-1.2s.8-.5 1.2-.4c.8.1 1.5.8 1.5 1.7v1c0 .6-.3 1.1-.8 1.4l-.3.2v1.6l2.6.7c.7.2 1.2.8 1.2 1.6v.7c-.2.3-.4.6-.5 1h-7.6zm-.5 1.9c.2-.2.4-.5.4-.8h7.8c.1.3.2.6.4.8l2.3 2.5h-13.1zm-3.2 3.5h15.2l1 1.1h-17.2zm14.6 5.4h-14.1c-.9 0-1.6-.7-1.6-1.6v-1.6h17.3v1.6c0 .9-.7 1.6-1.6 1.6zm8.7-3.2c0 .3 0 .6-.1.9l-.8 2.4h-3.4v-1.4c0-1-.4-1.9-1-2.6l-5.3-5.8c-.2-.2-.3-.4-.3-.6v-.1c0-.5.4-.9.9-.9.3 0 .5.1.7.3l3 3.3c.6.7 1.8.9 2.6.3l1.3-.8-.6-.9-1.2.8.3-1.6c0-.2.1-.4.1-.5v-3.8c0-.7-.2-1.3-.7-1.8l-1.5-1.7h-1.1v7.6l-1.1-1.2v-14.7h-15.1v14.5l-1.1 1.2v-10.3h-1.1v2.7l-1.5 1.7c-.4.5-.7 1.1-.7 1.8v3.8c0 .2 0 .4.1.5l.3 1.6-1.2-.8-.6.9 1.3.8c.8.5 1.9.4 2.6-.3l2.9-3.3c.2-.2.4-.3.7-.3.5 0 .9.4.9.9v.1c0 .2-.1.5-.3.6l-5.2 5.7c-.6.7-1 1.6-1 2.6v1.4h-3.3l-.8-2.2c-.1-.3-.1-.6-.1-.9v-6.4c0-1.4.2-2.8.7-4.2.6-1.7 1.5-3.3 2.7-4.7l2.5-2.8c.2-.2.4-.3.7-.3l.5-.1v-5.4h17.3v8.1h1.1v-2.4s0 0 .1.1l2.5 2.8c1.2 1.4 2.2 2.9 2.7 4.7.5 1.4.7 2.8.7 4.2v6.5zm-4.9-7.3v.3l-.4 1.9c-.1 0-.1-.1-.2-.1l-.5-.6v-7.2l.7.8c.3.3.4.7.4 1.1zm-21.3 2.2-.4-1.9c0-.1 0-.2 0-.3v-3.8c0-.4.1-.8.4-1.1l.7-.8v7.2l-.5.6s-.1.1-.2.1z"/><path d="m24.6 10.4h3.2v1.1h-3.2z"/><path d="m24.6 38.5h3.2v1.1h-3.2z"/><path d="m28.9 10.4h1.1v1.1h-1.1z"/><path d="m22.4 10.4h1.1v1.1h-1.1z"/></g></svg>