<?xml version="1.0" encoding="utf-8"?>
<!-- Generator: Adobe Illustrator 23.0.1, SVG Export Plug-In . SVG Version: 6.00 Build 0)  -->
<svg version="1.1" id="Capa_1" xmlns="http://www.w3.org/2000/svg" xmlns:xlink="http://www.w3.org/1999/xlink" x="0px" y="0px"
	 width="50px" height="50px" viewBox="0 0 50 50" style="enable-background:new 0 0 50 50;" xml:space="preserve">
<style type="text/css">
	.st0{fill:#b453b2;stroke:#212121;stroke-width:0.25;stroke-miterlimit:10;}
</style>
<g>
	<path class="st0" d="M25.6,6.4c-0.4,0-0.7,0.4-0.7,0.7v5.5c0,0.4,0.4,0.7,0.7,0.7c0.4,0,0.7-0.4,0.7-0.7V7.1
		C26.4,6.6,26.1,6.4,25.6,6.4z"/>
	<path class="st0" d="M26.2,3.4c-0.2-0.1-0.4-0.2-0.6-0.2S25.2,3.3,25,3.4c-0.1,0.2-0.2,0.4-0.2,0.6c0,0.2,0.1,0.4,0.2,0.6
		c0.2,0.2,0.4,0.2,0.6,0.2s0.4-0.1,0.6-0.2c0.2-0.2,0.2-0.4,0.2-0.6C26.4,3.8,26.3,3.6,26.2,3.4z"/>
	<path class="st0" d="M28.3,15.7v-1.6c0-1.3-1-2.3-2.3-2.3h-0.7c-1.3,0-2.3,1-2.3,2.3v1.6c-1.7,0.4-3.2,1-4.5,2
		c-0.1,0-0.1,0.1-0.2,0.1c-3,2.2-4.9,5.9-4.9,9.9s2,7.6,4.9,9.9l0.1,0.1c2,1.5,4.5,2.3,7.2,2.3c6.8,0,12.3-5.5,12.3-12.3
		C37.9,21.8,33.8,17,28.3,15.7z M17.5,20.6c-0.2,0.9-0.4,1.9-0.5,2.8l-1.4,0.4C16,22.6,16.7,21.5,17.5,20.6z M15.1,30.1
		c-0.2-0.7-0.3-1.6-0.3-2.4s0.1-1.6,0.3-2.3l1.8-0.4c-0.1,1.9-0.1,3.6,0,5.5L15.1,30.1z M15.7,31.8l1.4,0.3h0.1
		c0.1,0.9,0.3,1.9,0.5,2.8C16.8,33.9,16.1,32.9,15.7,31.8z M19.5,18.8c0.9-0.7,2-1.1,3.1-1.5c-0.4,1.8-0.7,3.5-0.8,5.4
		c-1,0.1-2,0.2-3.1,0.4C18.8,21.7,19.1,20.2,19.5,18.8z M18.4,24.7c1-0.2,2-0.4,3.2-0.5c-0.1,1-0.1,2.1-0.1,3.2c0,1.2,0,2.5,0.1,3.7
		c-1-0.1-2.1-0.3-3.2-0.4C18.3,28.7,18.3,26.8,18.4,24.7z M19.5,36.6c-0.4-1.4-0.7-2.8-0.8-4.3c1,0.2,2,0.3,3.1,0.4
		c0.2,1.8,0.5,3.6,0.8,5.4C21.4,37.8,20.4,37.2,19.5,36.6z M35.7,23.8l-1.4-0.3c-0.1,0-0.2,0-0.2,0c-0.1-1-0.3-2-0.5-3
		C34.5,21.4,35.2,22.5,35.7,23.8z M31.6,18.8c0.4,1.5,0.7,2.9,0.8,4.4c-1-0.2-2-0.3-3.1-0.4c-0.2-1.8-0.5-3.6-0.8-5.4
		C29.7,17.6,30.7,18.1,31.6,18.8z M24.4,14.2c0-0.5,0.4-0.8,0.8-0.8H26c0.5,0,0.8,0.4,0.8,0.8v1.3c-0.4,0-0.7-0.1-1.2-0.1
		s-0.8,0-1.2,0.1L24.4,14.2z M24.1,17c0.5-0.1,1-0.1,1.5-0.1s0.9,0,1.4,0.1c0.4,1.9,0.7,3.7,0.9,5.6c-1.6-0.1-3.1-0.1-4.7,0
		C23.5,20.7,23.8,18.8,24.1,17z M26.9,38.4c-0.5,0.1-0.8,0.1-1.3,0.1s-0.9,0-1.5-0.1c-0.4-1.9-0.7-3.7-0.9-5.6
		c0.7,0,1.6,0.1,2.3,0.1s1.5,0,2.2-0.1C27.7,34.7,27.4,36.6,26.9,38.4z M31.6,36.6c-0.9,0.7-2,1.1-3.1,1.4c0.4-1.8,0.7-3.5,0.8-5.4
		c1-0.1,2-0.2,3.1-0.4C32.3,33.8,32,35.2,31.6,36.6z M32.7,30.8c-1,0.2-2.1,0.3-3.2,0.4c0-0.2,0-0.4,0-0.6c0-0.4-0.3-0.7-0.7-0.8
		c-0.4,0-0.7,0.3-0.8,0.7c0,0.3,0,0.6-0.1,0.7c-1.6,0.1-3.3,0.1-4.8,0c-0.2-2.3-0.2-4.8,0-7.2c1.6-0.1,3.3-0.1,4.9,0
		c0,0.3,0,0.6,0.1,0.9c0,0.4,0.4,0.7,0.7,0.7c0.4,0,0.7-0.4,0.7-0.7c0-0.2,0-0.5,0-0.7c1,0.1,2,0.3,3.2,0.5
		C32.9,26.7,32.9,28.7,32.7,30.8z M33.5,35.1c0.2-1,0.4-2,0.5-3h0.3l1.4-0.3C35.1,33,34.5,34,33.5,35.1z M36.1,30.1l-2,0.4
		c0.2-1.9,0.2-3.7,0-5.5l2,0.4c0.2,0.7,0.3,1.5,0.3,2.3S36.3,29.4,36.1,30.1z"/>
	<path class="st0" d="M29.3,27.1C29.2,27,29,27,28.8,27s-0.4,0.1-0.6,0.2S28,27.5,28,27.7s0.1,0.4,0.2,0.6c0.2,0.2,0.4,0.2,0.6,0.2
		s0.4-0.1,0.6-0.2c0.2-0.2,0.2-0.4,0.2-0.6S29.5,27.3,29.3,27.1z"/>
	<path class="st0" d="M13.2,36.2c-1.2-0.3-2-1.2-2.3-2.4c-0.1-0.4-0.4-0.6-0.7-0.6s-0.7,0.3-0.7,0.6c-0.4,1.1-1.2,2-2.4,2.4
		c-0.4,0.1-0.6,0.4-0.6,0.7s0.3,0.7,0.6,0.7c1.2,0.3,2,1.2,2.3,2.4c0.1,0.4,0.4,0.6,0.7,0.6s0.7-0.3,0.7-0.6c0.3-1.2,1.2-2,2.3-2.4
		c0.4-0.1,0.6-0.4,0.6-0.7C13.8,36.6,13.5,36.2,13.2,36.2z M10.1,38c-0.3-0.5-0.7-0.8-1.2-1.2c0.5-0.3,0.8-0.7,1.2-1.2
		c0.3,0.5,0.7,0.8,1.2,1.2C10.8,37.2,10.4,37.6,10.1,38z"/>
	<path class="st0" d="M19.5,13.3C19.5,13.2,19.5,13.2,19.5,13.3C19.4,13.2,19.4,13.2,19.5,13.3l-2.7-5.6c-0.1-0.2-0.3-0.4-0.5-0.4
		c-0.2-0.1-0.4,0-0.6,0.1L10,10.6c-0.4,0.2-0.5,0.7-0.3,0.9l1.6,3.4c-0.4,0-0.7,0.1-1.1,0.3c-0.6,0.3-1.1,0.7-1.4,1.3
		c-0.4,0.7-0.5,1.3-0.2,1.9s0.8,0.9,1.6,1h0.5c0.5,0,0.9-0.1,1.4-0.3c0.6-0.3,1.1-0.7,1.4-1.3s0.4-1.3,0.1-1.8v-0.1c0,0,0,0,0-0.1
		l-2-4.4L16,8.9l1.5,3.2c-0.4,0-0.7,0.1-1.1,0.3c-0.6,0.3-1.1,0.7-1.4,1.3c-0.4,0.7-0.5,1.3-0.2,1.9c0.4,0.7,1.1,1.1,2,1.1
		c0.5,0,0.9-0.1,1.4-0.3C19.4,15.7,20,14.3,19.5,13.3z M11.6,16.4h0.2c0.1,0,0.3,0.1,0.4,0.3s0,0.4-0.1,0.5
		c-0.1,0.3-0.4,0.5-0.7,0.7s-0.7,0.2-1,0.2c-0.2,0-0.4-0.1-0.5-0.2c0-0.1,0-0.3,0.1-0.5c0.2-0.3,0.5-0.6,0.7-0.7
		C11.1,16.4,11.4,16.4,11.6,16.4z M17.4,14.9c-0.7,0.3-1.3,0.2-1.4-0.1c0-0.1,0-0.3,0.1-0.5c0.2-0.3,0.5-0.6,0.7-0.7
		c0.3-0.1,0.5-0.2,0.7-0.2c0.3,0,0.6,0.1,0.7,0.3C18.3,14.2,18,14.7,17.4,14.9z"/>
	<path class="st0" d="M40.2,12.1c-1.2-0.3-2-1.2-2.3-2.4c-0.1-0.4-0.4-0.6-0.7-0.6s-0.7,0.3-0.7,0.6c-0.3,1.2-1.2,2-2.3,2.4
		c-0.4,0.1-0.6,0.4-0.6,0.7s0.3,0.7,0.6,0.7c1.2,0.3,2,1.2,2.3,2.4c0.1,0.4,0.4,0.6,0.7,0.6s0.7-0.3,0.7-0.6c0.3-1.2,1.2-2,2.3-2.4
		c0.4-0.1,0.6-0.4,0.6-0.7S40.6,12.2,40.2,12.1z M37.2,14c-0.3-0.5-0.7-0.8-1.2-1.2c0.5-0.3,0.8-0.7,1.2-1.2
		c0.3,0.5,0.7,0.8,1.2,1.2C37.9,13.2,37.5,13.5,37.2,14z"/>
	<path class="st0" d="M44.3,32.5c-1.4-0.1-3.3-0.8-3.4-0.8c-0.2-0.1-0.5-0.1-0.7,0s-0.4,0.3-0.4,0.6l-0.6,4.4
		c-0.4-0.2-0.7-0.3-1.1-0.4c-0.7-0.1-1.4,0-2,0.3c-0.7,0.4-1.1,0.9-1.2,1.5c-0.1,0.7,0.2,1.3,0.7,1.8s1.1,0.7,1.8,0.8H38
		c1.3,0,2.3-0.7,2.5-1.9l0.7-5.3c0.7,0.3,1.9,0.6,2.9,0.7c0.4,0,0.7-0.3,0.7-0.7C45,32.8,44.7,32.5,44.3,32.5z M39.1,38.5
		c0,0.4-0.6,0.7-1.3,0.6c-0.4-0.1-0.7-0.2-0.9-0.5c-0.2-0.2-0.3-0.4-0.3-0.5s0.2-0.3,0.4-0.4s0.6-0.2,0.8-0.2h0.3
		C38.7,37.8,39.1,38.2,39.1,38.5z"/>
</g>
</svg>
