<?xml version="1.0" encoding="utf-8"?>
<!-- Generator: Adobe Illustrator 23.0.1, SVG Export Plug-In . SVG Version: 6.00 Build 0)  -->
<svg version="1.1" id="Capa_1" xmlns="http://www.w3.org/2000/svg" xmlns:xlink="http://www.w3.org/1999/xlink" x="0px" y="0px"
	 width="50px" height="50px" viewBox="0 0 50 50" style="enable-background:new 0 0 50 50;" xml:space="preserve">
<style type="text/css">
	.st0{fill:#000000;}
</style>
<path class="st0" d="M41.3,19.5H40v-2.7c0-2.3-1-4.3-2.7-5.8c-1.2-1-2.9-1.6-4.6-1.6H22.2c-0.7-0.8-1.7-1.2-2.8-1.2H9.3
	c-2,0-3.7,1.7-3.7,3.7s1.7,3.7,3.7,3.7h10.1c1.1,0,2.2-0.5,2.8-1.2h10.5c0.6,0,1,0.2,1.5,0.6c0.6,0.5,0.9,1.1,0.9,1.8v2.7h-6
	c-0.7,0-1.4,0.2-1.9,0.7l-1.8,1.4C25,21.8,24.5,22,24.2,22H20c-0.8,0-1.5,0.6-1.8,1.2h-1.4c-0.7,0-1.2,0.6-1.2,1.2h-2.8l-2.5-3.2
	H5.5v15.1h4.8l2.5-3.2h2.8c0,0.7,0.6,1.2,1.2,1.2h1.4c0.2,0.6,0.6,0.9,1.1,1.1v2c0,1,0.8,1.9,1.9,1.9h20.1c1,0,1.9-0.8,1.9-1.9v-2.5
	l0,0c0.8-0.6,1.2-1.5,1.2-2.5V22.5C44.5,20.9,43.1,19.5,41.3,19.5z M13.1,27v-1.2h2.5V27H13.1z M15.6,28.2v1.2h-2.5v-1.2H15.6z
	 M6.8,22.5h2.5v12.6H6.8V22.5z M11.7,32.4L10.5,34V23.8l1.2,1.6V32.4z M13.1,32.1v-1.2h2.5v1.2H13.1z M19.3,14.4H9.3
	c-1.4,0-2.5-1.1-2.5-2.5s1.1-2.5,2.5-2.5h10.1c1.4,0,2.5,1.1,2.5,2.5S20.7,14.4,19.3,14.4z M35,13.9c-0.7-0.5-1.5-0.8-2.3-0.8h-9.8
	c0.1-0.3,0.2-0.8,0.2-1.2S23,11,22.8,10.7h9.8c1.4,0,2.7,0.5,3.8,1.4c1.5,1.1,2.3,2.9,2.3,4.8v2.7h-2.5v-2.7
	C36.3,15.6,35.9,14.6,35,13.9z M19.3,23.8c0-0.3,0.2-0.7,0.7-0.7h4.2c0.1,0,0.1,0,0.2,0v11.3H20c-0.3,0-0.7-0.2-0.7-0.7
	C19.3,33.8,19.3,23.8,19.3,23.8z M16.8,24.5h1.2v8.8h-1.2V24.5z M42,37.7c0,0.3-0.2,0.7-0.7,0.7h-20c-0.3,0-0.7-0.2-0.7-0.7v-1.9
	h20.7c0.2,0,0.5,0,0.7-0.1V37.7z M43.2,32.6c0,1-0.8,1.9-1.9,1.9H25.7V22.8c0.1-0.1,0.3-0.2,0.5-0.3l1.8-1.4
	c0.3-0.2,0.8-0.5,1.1-0.5h12.3c1,0,1.9,0.8,1.9,1.9v10.1H43.2z"/>
<path class="st0" d="M31.9,33.3H42v-8.8H31.9V33.3z M33.1,25.7h7.6v6.2h-7.6V25.7z"/>
<path class="st0" d="M40.7,22H42v1.2h-1.2V22z"/>
<path class="st0" d="M31.9,22h7.6v1.2h-7.6C31.9,23.2,31.9,22,31.9,22z"/>
<path class="st0" d="M20.6,24.5h2.5v1.2h-2.5V24.5z"/>
<path class="st0" d="M20.6,27h2.5v1.2h-2.5V27z"/>
<path class="st0" d="M20.6,29.5h2.5v1.4h-2.5V29.5z"/>
<path class="st0" d="M20.6,32.1h2.5v1.2h-2.5V32.1z"/>
<path class="st0" d="M26.9,33.3h3.7V23.2h-3.7V33.3z M28.2,24.5h1.2v7.6h-1.2V24.5z"/>
</svg>
