<?xml version="1.0" encoding="utf-8"?>
<!-- Generator: Adobe Illustrator 23.0.1, SVG Export Plug-In . SVG Version: 6.00 Build 0)  -->
<svg version="1.1" id="Capa_1" xmlns="http://www.w3.org/2000/svg" xmlns:xlink="http://www.w3.org/1999/xlink" x="0px" y="0px"
	 width="50px" height="50px" viewBox="0 0 50 50" style="enable-background:new 0 0 50 50;" xml:space="preserve">
<style type="text/css">
	.st0{fill:#000000;}
</style>
<path class="st0" d="M44.8,23.7h-0.7c-0.1-1.1-0.3-2.2-0.9-3.2c0,0,0,0,0-0.1c-1-1.8-3.2-3.1-7.7-3.1H14.1c-4.5,0.1-6.7,1.3-7.7,3.1
	v0.1c-0.5,1-0.8,2.1-0.9,3.2H4.7C4.4,23.7,4,24,4,24.4s0.3,0.7,0.7,0.7h0.7v0.2c0,3.6,2.1,7.4,8,7.4c2.1,0,4.4-1.4,6.2-3.1
	c0,0,0,0,0.1-0.1c1.2-1.1,2.2-2.4,3-3.9c0.6-1.2,0.8-2.5,0.5-3.8c0.4-0.3,1-0.5,1.5-0.5s1.1,0.1,1.5,0.5c-0.3,1.3-0.1,2.7,0.5,3.8
	c0.8,1.5,1.8,2.8,3,3.9c0,0,0,0,0.1,0.1c1.9,1.7,4.1,3.1,6.2,3.1c5.9,0,8-3.8,8-7.4c0-0.1,0-0.2,0-0.2h0.7c0.4,0,0.7-0.3,0.7-0.7
	C45.5,24,45.2,23.7,44.8,23.7z M41.1,20.1h-12c1.3-0.9,3.3-1.4,6-1.4C38.1,18.7,40,19.2,41.1,20.1z M27.9,21.5h14.3
	c0.2,0.4,0.3,0.9,0.4,1.4h-15C27.5,22.4,27.7,21.9,27.9,21.5z M28.1,25c-0.1-0.3-0.2-0.5-0.3-0.8h15v1.1v0.3H28.4
	C28.3,25.4,28.2,25.2,28.1,25z M21.5,25c-0.1,0.2-0.2,0.4-0.3,0.6H6.8c0-0.1,0-0.2,0-0.3c0-0.4,0-0.8,0-1.1h15
	C21.7,24.5,21.6,24.8,21.5,25z M7,22.8c0.1-0.5,0.2-0.9,0.4-1.4h14.3c0.2,0.4,0.3,0.9,0.3,1.4H7z M8.5,20.1c1.1-0.9,2.9-1.4,6-1.4
	c2.7,0,4.8,0.5,6,1.4H8.5z M8.6,29.8h8.7c-1.1,0.9-2.4,1.4-3.8,1.6C11.1,31.3,9.6,30.6,8.6,29.8z M18.9,28.4H7.5
	C7.3,27.9,7.1,27.5,7,27h13.2C19.8,27.5,19.4,27.9,18.9,28.4z M24.8,20c-0.7,0-1.4,0.2-2,0.5c0,0,0,0,0-0.1
	c-0.5-0.7-1.1-1.3-1.8-1.7h7.8c-0.7,0.4-1.4,1-1.8,1.7v0.1C26.2,20.1,25.5,20,24.8,20z M29.4,27h13.2c-0.1,0.5-0.3,0.9-0.5,1.4H30.6
	C30.2,27.9,29.8,27.5,29.4,27z M36.1,31.3c-1.4-0.1-2.7-0.7-3.8-1.6H41C40,30.6,38.4,31.3,36.1,31.3z"/>
</svg>
