<?xml version="1.0" encoding="utf-8"?>
<!-- Generator: Adobe Illustrator 23.0.1, SVG Export Plug-In . SVG Version: 6.00 Build 0)  -->
<svg version="1.1" id="Capa_1" xmlns="http://www.w3.org/2000/svg" xmlns:xlink="http://www.w3.org/1999/xlink" x="0px" y="0px"
	 width="50px" height="50px" viewBox="0 0 50 50" style="enable-background:new 0 0 50 50;" xml:space="preserve">
<style type="text/css">
	.st0{fill:#FFFFFF;}
</style>
<g>
	<path class="st0" d="M22.1,9.5c-5,0-9.5,3.4-10.8,8.3c-0.1,0.4,0.1,0.8,0.5,0.9H12c0.3,0,0.6-0.2,0.7-0.5c1.2-4.3,5-7.2,9.5-7.2
		c0.4,0,0.7-0.3,0.7-0.7S22.4,9.5,22.1,9.5z"/>
	<path class="st0" d="M22.1,18.4c-1.3,0-2.4,1.1-2.4,2.4s1.1,2.4,2.4,2.4s2.4-1.1,2.4-2.4C24.4,19.4,23.4,18.4,22.1,18.4z
		 M22.1,21.7c-0.5,0-1-0.4-1-1c0-0.5,0.4-1,1-1c0.5,0,1,0.4,1,1C23,21.3,22.6,21.7,22.1,21.7z"/>
	<path class="st0" d="M22.1,13.7c-3.9,0-7.1,3.2-7.1,7.1s3.2,7.1,7.1,7.1s7.1-3.2,7.1-7.1S26,13.7,22.1,13.7z M22.1,26.4
		c-3.1,0-5.7-2.5-5.7-5.7s2.5-5.7,5.7-5.7c3.1,0,5.7,2.5,5.7,5.7S25.2,26.4,22.1,26.4z"/>
	<path class="st0" d="M25.3,12.1V12c0,0,0-0.1-0.1-0.1l-0.1-0.1L25,11.7c0,0-0.1,0-0.1-0.1h-0.1c-0.1,0-0.2,0-0.3,0h-0.1
		c0,0-0.1,0-0.1,0.1l-0.1,0.1l-0.1,0.1c0,0,0,0.1-0.1,0.1v0.1v0.1v0.1v0.1c0,0,0,0.1,0.1,0.1l0.1,0.1l0.1,0.1c0,0,0.1,0,0.1,0.1h0.1
		h0.1h0.1h0.1c0,0,0.1,0,0.1-0.1l0.1-0.1l0.1-0.1c0,0,0-0.1,0.1-0.1v-0.1v-0.1C25.3,12.2,25.3,12.1,25.3,12.1z"/>
	<path class="st0" d="M41.8,37.3c0.6-5,0.4-10.3,0.3-10.7c0-1.6-1.3-2.9-2.9-2.9v-1.9c0-1-0.8-1.8-1.8-1.8h-0.7c0-0.1,0-0.2,0-0.3
		C36,12,29.7,6.1,22.1,6.1C14,6.1,7.4,12.7,7.4,20.7c0,3.4,1.2,6.6,3.1,9.1v6.4v2.3v1c0,0.4,0.3,0.7,0.7,0.7h3.3
		c0.4,0,0.7-0.3,0.7-0.7v-3.3c0-0.4-0.3-0.7-0.7-0.7H12v-4.1c2.6,2.5,6.2,4,10.1,4c1.6,0,3.1-0.2,4.5-0.7l0.2,2.6
		c-0.6,0.5-1,1.3-1,2.1c0,1.5,1.2,2.7,2.7,2.7h11.7c1.5,0,2.7-1.2,2.7-2.7C42.8,38.5,42.4,37.7,41.8,37.3z M35.2,19.8v1V27v2.2
		c0,0.4,0.3,0.7,0.7,0.7s0.7-0.3,0.7-0.7v-7.9h0.7c0.2,0,0.4,0.2,0.4,0.4v2.1v0.5v5.1c0,0.4,0.3,0.7,0.7,0.7s0.7-0.3,0.7-0.7V25
		c0.8,0,1.5,0.7,1.5,1.5c0,0.1,0.3,5.3-0.3,10.1c-0.1,0-0.2,0-0.3,0H28.4c-0.1,0-0.2,0-0.3,0L28,34l-0.1-1.5L27.8,31
		c0-0.7,0.6-1.2,1.3-1.2h0.4v1.9v0.7c0,0.3,0.2,0.6,0.5,0.7h0.2c0.4,0,0.7-0.3,0.7-0.6v-0.1v-1.7v-1.2v-0.1v-0.1v-7.1
		c0-0.4,0.3-0.8,0.8-0.8h0.7v7.9v0.2c0,0.4,0.3,0.7,0.7,0.7s0.7-0.3,0.7-0.7v-2.3v-6.5V20c0-0.5,0.4-0.8,0.8-0.8
		C34.8,19.2,35.1,19.4,35.2,19.8z M13.9,36.9v1.9H12v-0.3v-1.6L13.9,36.9z M26.4,31.1l0.1,2.1c-1.4,0.5-2.9,0.8-4.4,0.8
		c-4,0-7.6-1.8-10.1-4.7v-4.7l1.1-0.6c0.3-0.2,0.5-0.6,0.3-0.9s-0.6-0.5-0.9-0.3L11,23.5c-0.2,0.1-0.4,0.4-0.4,0.6v3.1
		c-1.1-1.9-1.7-4.2-1.7-6.6c0-7.3,5.9-13.2,13.2-13.2c6.3,0,11.6,4.4,12.9,10.3c-0.2,0-0.3-0.1-0.5-0.1c-1.2,0-2.2,0.9-2.2,2.1h-0.7
		c-1.2,0-2.2,1-2.2,2.2v6.4H29C27.5,28.4,26.4,29.6,26.4,31.1z M40.1,40.7H28.4c-0.7,0-1.3-0.6-1.3-1.3c0-0.5,0.3-0.9,0.7-1.1h12.9
		c0.4,0.2,0.7,0.6,0.7,1.1C41.4,40.1,40.8,40.7,40.1,40.7z"/>
</g>
</svg>
