<svg enable-background="new 0 0 197 183.9" height="183.9" viewBox="0 0 197 183.9" width="197" xmlns="http://www.w3.org/2000/svg" xmlns:xlink="http://www.w3.org/1999/xlink"><linearGradient id="a"><stop offset="0" stop-color="#12c2e9"/><stop offset=".5" stop-color="#c471ed"/><stop offset="1" stop-color="#f64f59"/></linearGradient><linearGradient id="b" gradientUnits="userSpaceOnUse" x1="88.5539" x2="105.1449" xlink:href="#a" y1="169.0892" y2="169.0892"/><linearGradient id="c" gradientUnits="userSpaceOnUse" x1="51.7423" x2="143.5117" xlink:href="#a" y1="68.1531" y2="68.1531"/><g opacity=".75"><path d="m113.1 161.3v4h3.3v2.8h-3.3v6.7h-3v-16.3h8.8v2.8zm6.8-2.9h8.8v2.8h-5.8v4h3.3v2.8h-3.3v3.8h5.8v2.8h-8.8zm14.8 16.3c-.7 0-1.3-.1-2-.4-.6-.2-1.1-.6-1.6-1s-.8-.9-1.1-1.5-.4-1.2-.5-1.9h3c.1.6.3 1.1.6 1.5s.8.6 1.4.6c.3 0 .6 0 .8-.1.3-.1.5-.2.7-.4s.4-.4.5-.6.2-.5.2-.8c0-.4-.1-.8-.3-1.1s-.4-.5-.7-.7-.6-.3-1-.5c-.4-.1-.7-.3-1.1-.4-.2-.1-.5-.2-.7-.3s-.5-.2-.7-.3c-.8-.4-1.4-.9-1.8-1.6-.4-.6-.6-1.4-.6-2.3 0-.7.1-1.3.4-1.8.2-.5.6-1 1-1.4s.9-.7 1.5-.9 1.2-.3 1.8-.3 1.2.1 1.8.3 1 .5 1.4.9.7.9 1 1.4c.2.5.4 1.1.4 1.8h-3c0-.5-.2-1-.5-1.3s-.7-.5-1.3-.5c-.4 0-.8.1-1.1.4s-.5.7-.5 1.1.1.7.2.9l.6.6c.3.2.5.3.8.4l.9.3c.6.2 1.1.4 1.6.7s.9.6 1.3 1 .7.8.9 1.3.3 1.1.3 1.8-.1 1.4-.4 2-.6 1.1-1.1 1.6c-.4.4-1 .8-1.6 1-.1.4-.8.5-1.5.5zm11.8 0h-3v-13.5h-3v-2.8h9.1v2.8h-3.1zm4.3-16.3h3v16.3h-3zm18.5.1-11.5 16.3h-2.7v-13.5-2.8h3v10.9l7.5-10.9zm4.6.1v16.3h-3v-10.9l-7.5 10.9h-3.6l11.4-16.3zm1.3 0h3v13.5h5v2.8h-8z"/><path d="m19.2 161.4v10.6h2.8v2.8h-2.8-.2-2.8-2.8v-2.8h2.8v-10.6h-2.8v-2.8h2.8 3 2.8v2.8zm8.8 13.4c-.7 0-1.3-.1-2-.4-.6-.2-1.1-.6-1.6-1s-.8-.9-1.1-1.5-.4-1.2-.5-1.9h3c.1.6.3 1.1.6 1.5s.8.6 1.4.6c.3 0 .6 0 .8-.1.3-.1.5-.2.7-.4s.4-.4.5-.6.2-.5.2-.8c0-.4-.1-.8-.3-1.1s-.4-.5-.7-.7-.6-.3-1-.5c-.4-.1-.7-.3-1.1-.4-.2-.1-.5-.2-.7-.3s-.5-.2-.7-.3c-.8-.4-1.4-.9-1.7-1.6-.4-.6-.6-1.4-.6-2.3 0-.7.1-1.3.4-1.8.2-.5.6-1 1-1.4s.9-.7 1.5-.9 1.2-.3 1.8-.3 1.2.1 1.8.3 1 .5 1.4.9.7.9 1 1.4c.2.5.4 1.1.4 1.8h-3c0-.5-.2-1-.5-1.3s-.7-.5-1.3-.5c-.4 0-.8.1-1.1.4s-.5.7-.5 1.1.1.7.2.9l.6.6c.3.2.5.3.8.4s.6.2.9.3c.6.2 1.1.4 1.6.7s.9.6 1.3 1 .7.8.9 1.3.3 1.1.3 1.8-.1 1.4-.4 2-.6 1.1-1.1 1.6c-.4.4-1 .8-1.6 1-.2.4-.9.5-1.6.5zm5.8-16.3h3v13.5h5v2.8h-8zm23.2 0v16.3h-3v-10.9l-7.5 10.9h-3.6l11.4-16.3zm14.5 0v2.8 13.5h-3.3l-6.8-11.8h-.1v11.8h-3v-16.3h3.5l6.7 11.9h.1v-9.1h-2.8v-2.8h2.8zm14 6.5c-.1-.6-.3-1.2-.5-1.7s-.5-1.1-.8-1.6-.7-.9-1.2-1.3c-.4-.4-.9-.7-1.5-.9-.5-.2-1.1-.4-1.7-.6-.6-.1-1.2-.2-1.8-.3s-1.2-.1-1.8-.1h-3.7v16.3h2.9.9c.9 0 1.8-.1 2.8-.2s1.8-.4 2.6-.9c.6-.3 1.2-.8 1.7-1.3s.9-1.1 1.2-1.7.6-1.3.7-2c.2-.7.3-1.4.3-2.1.1-.4 0-1-.1-1.6zm-2.9 3.1c-.1.4-.3.9-.5 1.3s-.5.8-.8 1.1-.7.6-1.1.8c-.7.4-1.3.6-1.9.7s-1.3.1-2 .1h-.7-.1v-10.7h.1 1.4c.5 0 .9.1 1.4.2.4.1.9.2 1.3.4s.8.4 1.2.8c.6.5 1 1.1 1.3 1.8s.5 1.4.5 2.2c0 .4 0 .8-.1 1.3z"/><path d="m47.4 129.4v25.5h-4.7v-17.1h-.1l-11.7 17v-17h-.1l-11.7 17.1h-5.7l17.9-25.5h4.3v10.6l7.4-10.6zm23.7.1v25.5h-4.7v-17.1l-11.7 17.1h-5.7l17.9-25.5zm1.6-.1h4.7v21.1h7.7v4.4h-12.5zm13.9 0h4.7v21.1h7.7v4.4h-12.5zm25.4 25.5c-1.7 0-3.4-.3-4.9-1-1.6-.7-2.9-1.6-4.1-2.7s-2.1-2.5-2.8-4-1-3.2-1-5 .3-3.5 1-5c.7-1.6 1.6-2.9 2.8-4.1s2.5-2.1 4.1-2.7c1.6-.7 3.2-1 5-1s3.4.3 5 1 2.9 1.6 4.1 2.7c1.2 1.2 2.1 2.5 2.8 4.1s1 3.2 1 5-.3 3.4-1 5c-.7 1.5-1.6 2.9-2.8 4s-2.5 2-4.1 2.7c-1.7.7-3.4 1-5.1 1zm0-21.2c-1.2 0-2.2.2-3.2.7s-1.9 1.1-2.6 1.8c-.7.8-1.3 1.7-1.8 2.7-.4 1-.6 2.1-.6 3.3 0 1.1.2 2.2.6 3.2s1 1.9 1.8 2.7c.7.8 1.6 1.4 2.6 1.8 1 .5 2.1.7 3.2.7 1.2 0 2.2-.2 3.2-.7s1.9-1.1 2.6-1.8c.7-.8 1.3-1.7 1.8-2.7.4-1 .6-2.1.6-3.2 0-1.2-.2-2.2-.6-3.3-.4-1-1-1.9-1.7-2.7s-1.6-1.4-2.6-1.8c-1.1-.5-2.2-.7-3.3-.7zm31.7 21.2h-5.7l-9.2-13.3h2.4 3c.6 0 1.2-.1 1.8-.2.6-.2 1-.4 1.4-.7s.7-.7 1-1.2c.2-.5.4-1.1.4-1.8s-.1-1.2-.4-1.7c-.2-.5-.6-.9-1-1.2s-.9-.6-1.4-.7c-.5-.2-1.1-.2-1.7-.2h-3-4.7v-4.4h7.8c1.1 0 2.2.1 3.3.3s2 .7 2.9 1.4c1 .7 1.7 1.7 2.2 2.7.5 1.1.8 2.2.8 3.4 0 1.1-.2 2.2-.6 3.3s-1 2-1.8 2.8c-.7.6-1.3 1.1-2 1.4-.6.3-1.4.5-2.3.7zm39.5-25.4v25.5h-4.7v-17.1l-11.7 17.1h-5.7l17.9-25.5zm-22.6 20.3c-1 .6-2.1.8-3.4.8-1.1 0-2.2-.2-3.2-.7s-1.8-1.1-2.6-1.9c-.7-.8-1.3-1.7-1.7-2.7s-.6-2.1-.6-3.2.2-2.1.6-3.1 1-1.9 1.7-2.7 1.6-1.4 2.5-1.9c1-.5 2-.7 3.1-.7 1.4 0 2.6.3 3.7.9s2 1.4 2.8 2.4l2.4-3.9c-.6-.5-1.2-1.1-1.8-1.5-1-.6-2.1-1.1-3.3-1.5s-2.4-.5-3.6-.5c-1.7 0-3.4.3-4.9 1s-2.9 1.6-4 2.7c-1.2 1.1-2.1 2.5-2.7 4-.7 1.5-1 3.2-1 4.9s.3 3.4 1 5 1.6 2.9 2.7 4.1c1.2 1.2 2.5 2.1 4.1 2.8s3.2 1 5 1c.4 0 .8 0 1.2-.1l5.1-7.3h-.3c-.9.8-1.9 1.6-2.8 2.1z"/><path d="m93.4 181.1 11.9-14.4h-6.6l7.1-8.3h-7.3l-9.3 11.1h11.2z"/></g><g fill="#fff"><path d="m112.5 160.6v4h3.3v2.8h-3.3v6.7h-3v-16.3h8.8v2.8zm6.7-2.9h8.8v2.8h-5.8v4h3.3v2.8h-3.3v3.8h5.8v2.8h-8.8zm14.9 16.4c-.7 0-1.3-.1-2-.4-.6-.2-1.1-.6-1.6-1s-.8-.9-1.1-1.5-.4-1.2-.5-1.9h3c.1.6.3 1.1.6 1.5s.8.6 1.4.6c.3 0 .6 0 .8-.1.3-.1.5-.2.7-.4s.4-.4.5-.6.2-.5.2-.8c0-.4-.1-.8-.3-1.1s-.4-.5-.7-.7-.6-.3-1-.5c-.4-.1-.7-.3-1.1-.4-.2-.1-.5-.2-.7-.3s-.5-.2-.7-.3c-.8-.4-1.4-.9-1.7-1.6-.4-.6-.6-1.4-.6-2.3 0-.7.1-1.3.4-1.8.2-.5.6-1 1-1.4s.9-.7 1.5-.9 1.2-.3 1.8-.3 1.2.1 1.8.3 1 .5 1.4.9.7.9 1 1.4c.2.5.4 1.1.4 1.8h-3c0-.5-.2-1-.5-1.3s-.7-.5-1.3-.5c-.4 0-.8.1-1.1.4s-.5.7-.5 1.1.1.7.2.9l.6.6c.3.2.5.3.8.4s.6.2.9.3c.6.2 1.1.4 1.6.7s.9.6 1.3 1 .7.8.9 1.3.3 1.1.3 1.8-.1 1.4-.4 2-.6 1.1-1.1 1.6c-.4.4-1 .8-1.6 1-.2.3-.9.5-1.6.5zm11.7 0h-3v-13.5h-3v-2.8h9.1v2.8h-3.1zm4.3-16.3h3v16.3h-3zm18.5 0-11.5 16.3h-2.7v-13.5-2.8h3v10.9l7.5-10.9zm4.6.2v16.3h-3v-10.9l-7.5 10.9h-3.6l11.4-16.3zm1.4 0h3v13.5h5v2.8h-8z"/><path d="m18.5 160.7v10.6h2.8v2.8h-2.8-.2-2.8-2.8v-2.8h2.8v-10.6h-2.8v-2.8h2.8 3 2.8v2.8zm8.8 13.5c-.7 0-1.3-.1-2-.4-.6-.2-1.1-.6-1.6-1s-.8-.9-1.1-1.5-.4-1.2-.5-1.9h3c.1.6.3 1.1.6 1.5s.8.6 1.4.6c.3 0 .6 0 .8-.1.3-.1.5-.2.7-.4s.4-.4.5-.6.2-.5.2-.8c0-.4-.1-.8-.3-1.1s-.4-.5-.7-.7-.6-.3-1-.5c-.4-.1-.7-.3-1.1-.4-.2-.1-.5-.2-.7-.3s-.5-.2-.7-.3c-.8-.4-1.4-.9-1.7-1.6-.4-.6-.6-1.4-.6-2.3 0-.7.1-1.3.4-1.8.2-.5.6-1 1-1.4s.9-.7 1.5-.9 1.2-.3 1.8-.3 1.2.1 1.8.3 1 .5 1.4.9.7.9 1 1.4c.2.5.4 1.1.4 1.8h-3c0-.5-.2-1-.5-1.3s-.7-.5-1.3-.5c-.4 0-.8.1-1.1.4s-.5.7-.5 1.1.1.7.2.9l.6.6c.3.2.5.3.8.4s.6.2.9.3c.6.2 1.1.4 1.6.7s.9.6 1.3 1 .7.8.9 1.3.3 1.1.3 1.8-.1 1.4-.4 2-.6 1.1-1.1 1.6c-.4.4-1 .8-1.6 1-.2.3-.9.5-1.6.5zm5.9-16.4h3v13.5h5v2.8h-8zm23.2.1v16.3h-3v-10.9l-7.5 10.9h-3.6l11.4-16.3zm14.5 0v2.8 13.5h-3.3l-6.8-11.8h-.1v11.8h-3v-16.3h3.5l6.7 11.9h.1v-9.1h-2.8v-2.8h2.8zm14 6.4c-.1-.6-.3-1.2-.5-1.7s-.5-1.1-.8-1.6-.7-.9-1.2-1.3c-.4-.4-.9-.7-1.5-.9-.5-.2-1.1-.4-1.7-.6-.6-.1-1.2-.2-1.8-.3s-1.2-.1-1.7-.1h-3.7v16.3h2.9.9c.9 0 1.8-.1 2.8-.2s1.8-.4 2.6-.9c.6-.3 1.2-.8 1.7-1.3s.9-1.1 1.2-1.7.6-1.3.7-2c.2-.7.3-1.4.3-2.1 0-.4-.1-1-.2-1.6zm-3 3.1c-.1.4-.3.9-.5 1.3s-.5.8-.8 1.1-.7.6-1.1.8c-.7.4-1.3.6-1.9.7s-1.3.1-2 .1h-.6-.1v-10.7h.1 1.4c.5 0 .9.1 1.4.2.4.1.9.2 1.3.4s.8.4 1.2.8c.6.5 1 1.1 1.3 1.8s.5 1.4.5 2.2c0 .4-.1.9-.2 1.3z"/><path d="m46.8 128.8v25.5h-4.7v-17.1h-.1l-11.7 17v-17h-.1l-11.7 17.1h-5.7l17.9-25.5h4.3v10.6l7.4-10.6zm23.7 0v25.5h-4.7v-17.1l-11.8 17.1h-5.7l17.9-25.5zm1.5 0h4.7v21.1h7.7v4.4h-12.5zm14 0h4.7v21.1h7.7v4.4h-12.5zm25.3 25.5c-1.7 0-3.4-.3-4.9-1-1.6-.7-2.9-1.6-4.1-2.7s-2.1-2.5-2.8-4-1-3.2-1-5 .3-3.5 1-5c.7-1.6 1.6-2.9 2.8-4.1s2.5-2.1 4.1-2.7c1.6-.7 3.2-1 5-1s3.4.3 5 1 2.9 1.6 4.1 2.7c1.2 1.2 2.1 2.5 2.8 4.1s1 3.2 1 5-.3 3.4-1 5c-.7 1.5-1.6 2.9-2.8 4s-2.5 2-4.1 2.7c-1.7.7-3.3 1-5.1 1zm0-21.2c-1.2 0-2.2.2-3.2.7s-1.9 1.1-2.6 1.8c-.7.8-1.3 1.7-1.8 2.7-.4 1-.6 2.1-.6 3.3 0 1.1.2 2.2.6 3.2s1 1.9 1.8 2.7c.7.8 1.6 1.4 2.6 1.8 1 .5 2.1.7 3.2.7 1.2 0 2.2-.2 3.2-.7s1.9-1.1 2.6-1.8c.7-.8 1.3-1.7 1.8-2.7.4-1 .6-2.1.6-3.2 0-1.2-.2-2.2-.6-3.3-.4-1-1-1.9-1.7-2.7s-1.6-1.4-2.6-1.8c-1-.5-2.1-.7-3.3-.7zm31.7 21.2h-5.7l-9.2-13.3h2.4 3c.6 0 1.2-.1 1.8-.2.6-.2 1-.4 1.4-.7s.7-.7 1-1.2c.2-.5.4-1.1.4-1.8s-.1-1.2-.4-1.7c-.2-.5-.6-.9-1-1.2s-.9-.6-1.4-.7c-.5-.2-1.1-.2-1.7-.2h-3-4.7v-4.4h7.8c1.1 0 2.2.1 3.3.3s2 .7 2.9 1.4c1 .7 1.7 1.7 2.2 2.7.5 1.1.8 2.2.8 3.4 0 1.1-.2 2.2-.6 3.3s-1 2-1.8 2.8c-.7.6-1.3 1.1-2 1.4-.6.3-1.4.5-2.3.7zm39.5-25.5v25.5h-4.7v-17.1l-11.7 17.1h-5.7l17.9-25.5zm-22.6 20.4c-1 .6-2.1.8-3.4.8-1.1 0-2.2-.2-3.2-.7s-1.8-1.1-2.6-1.9c-.7-.8-1.3-1.7-1.7-2.7s-.6-2.1-.6-3.2.2-2.1.6-3.1 1-1.9 1.7-2.7 1.6-1.4 2.5-1.9c1-.5 2-.7 3.1-.7 1.4 0 2.6.3 3.7.9s2 1.4 2.8 2.4l2.4-3.9c-.6-.5-1.2-1.1-1.8-1.5-1-.6-2.1-1.1-3.3-1.5s-2.4-.5-3.6-.5c-1.7 0-3.4.3-4.9 1s-2.9 1.6-4 2.7c-1.2 1.1-2.1 2.5-2.7 4-.7 1.5-1 3.2-1 4.9s.3 3.4 1 5 1.6 2.9 2.7 4.1c1.2 1.2 2.5 2.1 4.1 2.8s3.2 1 5 1c.4 0 .8 0 1.2-.1l5.1-7.3h-.3c-.9.8-1.8 1.5-2.8 2.1z"/></g><path d="m92.8 180.4 11.9-14.3h-6.7l7.1-8.4h-7.2l-9.3 11.2h11.2z" fill="url(#b)"/><path d="m97.6 114c-6.2 0-12.1-1.2-17.7-3.5-5.6-2.4-10.4-5.6-14.6-9.7s-7.5-9-9.9-14.5-3.6-11.5-3.6-17.9 1.2-12.5 3.6-18c2.4-5.6 5.7-10.5 9.8-14.6 4.2-4.2 9-7.4 14.6-9.8 5.5-2.4 11.5-3.6 17.8-3.6s12.3 1.2 17.9 3.6 10.5 5.7 14.6 9.8c4.1 4.2 7.4 9 9.8 14.6s3.6 11.6 3.6 18-1.2 12.3-3.6 17.9c-2.4 5.5-5.7 10.4-9.9 14.5s-9 7.4-14.6 9.7c-5.6 2.4-11.5 3.5-17.8 3.5z" fill="url(#c)"/><path d="m159.1 47.6h-39.1l-.1-.2v.2h-10.2l-20.7 34.4 4.4-44-19.5 32.5 3.3-32.5-35.1 58.5-.4.7h11.1l11.4-19-3.3 32.6 19.5-32.6-1.9 19h12.6l28.7-47.9 5.8 14.5h-11.8l-20 33.4h11.1l14.6-24.4h24.4l5.4-9h-12.6l-3-7.3h20z" opacity=".75"/><path d="m158 46.6h-39l-.1-.2v.2h-10.2l-20.7 34.4 4.4-44-19.5 32.5 3.3-32.5-35.1 58.5-.4.7h11.1l11.4-19-3.3 32.6 19.5-32.6-1.9 19h12.6l28.7-47.9 5.8 14.5h-11.8l-20 33.4h11.1l14.6-24.4h24.4l5.4-9h-12.7l-2.9-7.3h20z" fill="#fff"/></svg>