<?xml version="1.0" encoding="utf-8"?>
<!-- Generator: Adobe Illustrator 23.0.1, SVG Export Plug-In . SVG Version: 6.00 Build 0)  -->
<svg version="1.1" id="Capa_1" xmlns="http://www.w3.org/2000/svg" xmlns:xlink="http://www.w3.org/1999/xlink" x="0px" y="0px"
	 width="50px" height="50px" viewBox="0 0 50 50" style="enable-background:new 0 0 50 50;" xml:space="preserve">
<style type="text/css">
	.st0{fill:#b453b2;stroke:#212121;stroke-width:0.25;stroke-miterlimit:10;}
</style>
<g>
	<path class="st0" d="M28.9,23.6c-0.4,0-0.7,0.3-0.7,0.7s0.3,0.7,0.7,0.7s0.7-0.3,0.7-0.7S29.2,23.6,28.9,23.6z"/>
	<path class="st0" d="M14.8,30.8l-6.6,8.3C8,39.3,8,39.6,8.1,39.8s0.3,0.4,0.6,0.4H41c0.3,0,0.5-0.1,0.6-0.4
		c0.1-0.2,0.1-0.5-0.1-0.7L35,30.8c-0.1-0.2-0.3-0.2-0.5-0.2h-5.7l4.9-7.7c1.2-1.7,1.8-3.7,1.8-5.8c0-5.8-4.7-10.5-10.5-10.5
		S14.4,11.2,14.4,17c0,2.1,0.6,4.1,1.8,5.8l4.9,7.7h-5.7C15.2,30.5,15,30.6,14.8,30.8z M12.4,36h4l-2.2,2.8h-4L12.4,36z M21.9,31.9
		l1.8,2.8H19l2.2-2.8L21.9,31.9z M27.9,31.9h0.6l2.2,2.8H26L27.9,31.9z M31.8,36l2.2,2.8H15.8L18,36H31.8z M35.7,38.8L33.5,36h4
		l2.2,2.8H35.7z M36.4,34.7h-4l-2.2-2.8h4L36.4,34.7z M17.3,22.1c-1-1.5-1.5-3.3-1.5-5.1c0-5.1,4.1-9.2,9.2-9.2s9.2,4.1,9.2,9.2
		c0,1.8-0.5,3.6-1.5,5.1c-0.4,0.7-7.3,11.5-7.6,12C24.1,32.8,18.1,23.5,17.3,22.1z M19.6,31.9l-2.2,2.8h-4l2.2-2.8
		C15.6,31.9,19.6,31.9,19.6,31.9z"/>
	<path class="st0" d="M24.9,23.6c3.6,0,6.6-2.9,6.6-6.6c0-3.6-2.9-6.6-6.6-6.6s-6.6,2.9-6.6,6.6C18.4,20.7,21.3,23.6,24.9,23.6z
		 M24.9,11.8c2.9,0,5.2,2.4,5.2,5.2c0,2.9-2.4,5.2-5.2,5.2c-2.9,0-5.2-2.3-5.2-5.2S22,11.8,24.9,11.8z"/>
	<path class="st0" d="M27.7,25.8c-0.3-0.2-0.7-0.1-0.9,0.2l-2.4,4c-0.2,0.3-0.1,0.7,0.2,0.9s0.7,0.1,0.9-0.2l2.4-4
		C28.1,26.4,28,26,27.7,25.8z"/>
</g>
</svg>
