<?xml version="1.0" encoding="utf-8"?>
<!-- Generator: Adobe Illustrator 23.0.1, SVG Export Plug-In . SVG Version: 6.00 Build 0)  -->
<svg version="1.1" id="Capa_1" xmlns="http://www.w3.org/2000/svg" xmlns:xlink="http://www.w3.org/1999/xlink" x="0px" y="0px"
	 width="50px" height="50px" viewBox="0 0 50 50" style="enable-background:new 0 0 50 50;" xml:space="preserve">
<style type="text/css">
	.st0{fill:#000000;}
</style>
<g>
	<path class="st0" d="M32.6,30.1c-1.7,0-3.2,0.8-4.2,2l-8-4.5c0.2-0.5,0.3-1.1,0.3-1.7c0-0.6-0.1-1.2-0.3-1.7l8-4.5
		c1,1.2,2.4,2,4.2,2c2.9,0,5.2-2.4,5.2-5.2s-2.4-5.2-5.2-5.2s-5.2,2.4-5.2,5.2c0,0.6,0.1,1.2,0.3,1.7l-8,4.5c-1-1.3-2.4-2-4.2-2
		c-2.9,0-5.2,2.4-5.2,5.2s2.4,5.2,5.2,5.2c1.7,0,3.2-0.8,4.2-2l8,4.5c-0.2,0.5-0.3,1.1-0.3,1.7c0,2.9,2.4,5.2,5.2,5.2
		s5.2-2.4,5.2-5.2S35.4,30.1,32.6,30.1z M32.6,13c2,0,3.6,1.6,3.6,3.6s-1.6,3.6-3.6,3.6S29,18.5,29,16.5S30.6,13,32.6,13z
		 M15.4,29.5c-2,0-3.6-1.6-3.6-3.6s1.6-3.6,3.6-3.6S19,24,19,26S17.4,29.5,15.4,29.5z M32.6,38.9c-2,0-3.6-1.6-3.6-3.6
		c0-2,1.6-3.6,3.6-3.6s3.6,1.6,3.6,3.6C36.1,37.3,34.5,38.9,32.6,38.9z"/>
</g>
</svg>
