<?xml version="1.0" encoding="utf-8"?>
<!-- Generator: Adobe Illustrator 23.0.1, SVG Export Plug-In . SVG Version: 6.00 Build 0)  -->
<svg version="1.1" id="Capa_1" xmlns="http://www.w3.org/2000/svg" xmlns:xlink="http://www.w3.org/1999/xlink" x="0px" y="0px"
	 width="50px" height="50px" viewBox="0 0 50 50" style="enable-background:new 0 0 50 50;" xml:space="preserve">
<style type="text/css">
	.st0{fill:#b453b2;stroke:#212121;stroke-width:0.25;stroke-miterlimit:10;}
</style>
<g>
	<path class="st0" d="M24.9,41.4c3.8,0,7.2-2.2,8.3-5.1l5.3,1.5c0.2-0.5,0.4-0.8,0.6-1.2L33.5,35c0-0.1,0-0.1,0-0.3
		c1.4-1,2.2-2.2,2.2-3.6c0-0.4,0-0.6-0.1-0.8c2.9-0.4,5.1-2.9,5.1-5.9c0-2.7-1.8-5-4.4-5.6v-0.5c0-2.8-1.7-5.3-4.2-6.3L29,10.7
		c-0.1-0.9-0.6-1.8-1.4-2.4l-2.9-2.2v1.4c0,1.2-0.1,2.2-0.4,3.2l-2.8-2.1l-0.7,1.3c-0.6,1.4-1.7,2.3-3.1,2.8c-2.6,0.9-4.4,3.2-4.6,6
		c-2.6,0.6-4.4,2.9-4.4,5.6c0,3.1,2.3,5.5,5.1,5.9v0.9c0,1.4,0.8,2.6,2.2,3.6V35l-5.5,1.7c-0.1,0-0.1,0-0.2,0.1
		c0.3,0.5,0.6,0.9,0.9,1.4l5.2-1.6C17.8,39.3,21.1,41.4,24.9,41.4z M24.9,39.8c-3.3,0-6.1-1.8-7-4.2c1.8,0.9,4.4,1.4,7,1.4
		c2.7,0,5.1-0.5,7-1.4C31.1,38,28.3,39.8,24.9,39.8z M39.5,24.4c0,2.4-1.9,4.4-4.4,4.4v-1.5c1.7,0,2.9-1.3,2.9-2.9s-1.3-2.9-2.9-2.9
		c0-0.6-0.1-1-0.3-1.5h0.3C37.6,20.1,39.5,22,39.5,24.4z M35.2,25.8V23c0.8,0,1.5,0.6,1.5,1.4S36,25.8,35.2,25.8z M14.7,26
		c-0.8,0-1.5-0.7-1.5-1.5s0.7-1.5,1.5-1.5V26z M14.7,21.6c-1.7,0-2.9,1.3-2.9,2.9c0,1.7,1.3,2.9,2.9,2.9v1.5
		c-2.6,0.1-4.4-1.8-4.4-4.3s1.9-4.4,4.4-4.4H15C14.8,20.6,14.7,21.1,14.7,21.6z M14.7,18.6c0.3-1.9,1.7-3.7,3.7-4.4
		c1.7-0.6,3.1-1.7,4-3.3l3,2.3l0.4-1c0.4-1,0.6-2.1,0.7-3.1L27,9.5c0.6,0.4,0.9,1,0.9,1.7v0.5l4,1.7c2.1,0.8,3.3,2.8,3.3,5v0.3h-0.8
		c-1-1.8-3-3-5.1-3c-1.5,0-3,0.6-4.1,1.7L25,17.5l-0.1-0.1c-1-1.2-2.6-1.7-4.1-1.7c-2.3,0-4.1,1.3-5.1,3L14.7,18.6z M26.3,23
		c-0.6,0-1,0.1-1.5,0.4c-0.5-0.3-1-0.4-1.5-0.4c-1.5,0-2.8,1.2-2.9,2.7c-1.7,0.4-3.2,1-4.4,1.8v-5.9c0-2.6,2.1-4.5,4.5-4.5
		c1.2,0,2.3,0.5,3.2,1.3l1.2,1.2l1.2-1.2c0.8-0.8,1.9-1.3,3.1-1.3c2.6,0,4.5,2.1,4.5,4.5v5.9c-1.2-0.8-2.7-1.4-4.5-1.8
		C29,24.1,27.8,23,26.3,23z M27.8,25.4c-0.9-0.1-1.8-0.3-2.8-0.3l0.4-0.4c0.1-0.1,0.5-0.4,0.9-0.4C27,24.4,27.5,24.8,27.8,25.4z
		 M24.8,25.2c-1,0-1.8,0.1-2.8,0.3c0.3-0.6,0.8-0.9,1.4-0.9c0.4,0,0.7,0.1,0.9,0.4L24.8,25.2z M15.3,31.1c0-2.1,3.8-4.4,9.6-4.4
		s9.6,2.3,9.6,4.4s-3.8,4.4-9.6,4.4C19.2,35.4,15.3,33.1,15.3,31.1z"/>
	<path class="st0" d="M31.9,29L31,30l0.3,0.3c0.1,0.1,0.1,0.3,0.3,0.4c-0.8,0.4-2.9,1.2-6.5,1.2s-5.6-0.8-6.5-1.2
		c0-0.1,0.1-0.3,0.3-0.4L19,30l-1.4-1l-0.3,0.3c-0.4,0.5-0.6,1.1-0.6,1.7s0.3,1.3,0.7,1.7l0.4,0.3l0.7-0.7c1.3,0.5,3.3,0.9,6.3,0.9
		s5.1-0.5,6.3-0.9l0.7,0.7l0.3-0.3c0.5-0.5,0.7-1.2,0.7-1.7c0-0.6-0.3-1.3-0.7-1.7L31.9,29z"/>
	<circle class="st0" cx="29.3" cy="21.5" r="0.7"/>
	<circle class="st0" cx="20.5" cy="21.5" r="0.7"/>
</g>
</svg>
