<?xml version="1.0" encoding="utf-8"?>
<!-- Generator: Adobe Illustrator 23.0.1, SVG Export Plug-In . SVG Version: 6.00 Build 0)  -->
<svg version="1.1" id="Capa_1" xmlns="http://www.w3.org/2000/svg" xmlns:xlink="http://www.w3.org/1999/xlink" x="0px" y="0px"
	 width="50px" height="50px" viewBox="0 0 50 50" style="enable-background:new 0 0 50 50;" xml:space="preserve">
<style type="text/css">
	.st0{fill:#FFFFFF;stroke:#212121;stroke-width:0.25;stroke-miterlimit:10;}
</style>
<g>
	<path class="st0" d="M15.5,34.5h1.9c0.4,0,0.7-0.3,0.7-0.7s-0.3-0.7-0.7-0.7h-1.9c-0.4,0-0.7,0.3-0.7,0.7S15.1,34.5,15.5,34.5z"/>
	<path class="st0" d="M15.5,30.7h1.9c0.4,0,0.7-0.3,0.7-0.7s-0.3-0.7-0.7-0.7h-1.9c-0.4,0-0.7,0.3-0.7,0.7S15.1,30.7,15.5,30.7z"/>
	<path class="st0" d="M15.5,26.9h1.9c0.4,0,0.7-0.3,0.7-0.7s-0.3-0.7-0.7-0.7h-1.9c-0.4,0-0.7,0.3-0.7,0.7S15.1,26.9,15.5,26.9z"/>
	<path class="st0" d="M17.4,21.7h-1.9c-0.4,0-0.7,0.3-0.7,0.7s0.3,0.7,0.7,0.7h1.9c0.4,0,0.7-0.3,0.7-0.7S17.8,21.7,17.4,21.7z"/>
	<path class="st0" d="M25.1,21.7h-1.9c-0.4,0-0.7,0.3-0.7,0.7s0.3,0.7,0.7,0.7h1.9c0.4,0,0.7-0.3,0.7-0.7S25.5,21.7,25.1,21.7z"/>
	<path class="st0" d="M23.2,26.9h1.9c0.4,0,0.7-0.3,0.7-0.7s-0.3-0.7-0.7-0.7h-1.9c-0.4,0-0.7,0.3-0.7,0.7S22.8,26.9,23.2,26.9z"/>
	<path class="st0" d="M32.7,29.3c-0.4,0-0.7,0.3-0.7,0.7v3.8c0,0.4,0.3,0.7,0.7,0.7h3.8c0.4,0,0.7-0.3,0.7-0.7s-0.3-0.7-0.7-0.7
		h-3.1V30C33.4,29.6,33.1,29.3,32.7,29.3z"/>
	<path class="st0" d="M30.8,23.1h1.9c0.4,0,0.7-0.3,0.7-0.7s-0.3-0.7-0.7-0.7h-1.9c-0.4,0-0.7,0.3-0.7,0.7S30.4,23.1,30.8,23.1z"/>
	<path class="st0" d="M14.8,12.1H9.7c-0.4,0-0.7,0.3-0.7,0.7v24.9c0,0.4,0.3,0.7,0.7,0.7h16l0.1,0.1c1.6,2.3,4.1,3.7,6.9,3.7
		c4.6,0,8.3-3.7,8.3-8.3c0-1.9-0.7-3.8-1.9-5.2L39,28.6V12.8c0-0.4-0.3-0.7-0.7-0.7h-5.1v-1.3c0-0.4-0.3-0.7-0.7-0.7
		s-0.7,0.3-0.7,0.7v1.3h-4.3v-1.3c0-0.4-0.3-0.7-0.7-0.7s-0.7,0.3-0.7,0.7v1.3h-4.3v-1.3c0-0.4-0.3-0.7-0.7-0.7s-0.7,0.3-0.7,0.7
		v1.3h-4.3v-1.3c0-0.4-0.3-0.7-0.7-0.7s-0.7,0.3-0.7,0.7v1.3H14.8z M25.7,29.3l-0.1,0.2l-0.2-0.1c-0.1-0.1-0.2-0.1-0.3-0.1h-1.9
		c-0.4,0-0.7,0.3-0.7,0.7s0.3,0.7,0.7,0.7H25L24.9,31c-0.2,0.6-0.4,1.2-0.4,1.9v0.2h-1.2c-0.4,0-0.7,0.3-0.7,0.7s0.3,0.7,0.7,0.7
		h1.2v0.2c0.1,0.6,0.2,1.3,0.4,1.9l0.1,0.3H10.4V19.2h27.3v8l-0.4-0.3c-1.4-0.9-3-1.4-4.6-1.4C29.9,25.5,27.2,26.9,25.7,29.3z
		 M39.6,33.8c0,3.8-3.1,6.9-6.9,6.9s-6.9-3.1-6.9-6.9s3.1-6.9,6.9-6.9S39.6,30,39.6,33.8z M15.5,15.4c0.4,0,0.7-0.3,0.7-0.7v-1.2
		h4.3v1.2c0,0.4,0.3,0.7,0.7,0.7s0.7-0.3,0.7-0.7v-1.2h4.3v1.2c0,0.4,0.3,0.7,0.7,0.7s0.7-0.3,0.7-0.7v-1.2h4.3v1.2
		c0,0.4,0.3,0.7,0.7,0.7s0.7-0.3,0.7-0.7v-1.2h4.4v4.3H10.4v-4.3h4.4v1.2C14.8,15.1,15.1,15.4,15.5,15.4z"/>
</g>
</svg>
