<?xml version="1.0" encoding="utf-8"?>
<!-- Generator: Adobe Illustrator 23.0.1, SVG Export Plug-In . SVG Version: 6.00 Build 0)  -->
<svg version="1.1" id="Capa_1" xmlns="http://www.w3.org/2000/svg" xmlns:xlink="http://www.w3.org/1999/xlink" x="0px" y="0px"
	 width="50px" height="50px" viewBox="0 0 50 50" style="enable-background:new 0 0 50 50;" xml:space="preserve">
<style type="text/css">
	.st0{fill:#b453b2;stroke:#212121;stroke-width:0.25;stroke-miterlimit:10;}
</style>
<g>
	<path class="st0" d="M42.1,15l-6.3-5l-5.7-2.7c0,0,0,0-0.1,0c-0.1,0,0,0-0.1,0c-0.1,0,0,0-0.1,0h-0.1h-9.3h-0.1c0,0,0,0-0.1,0
		c-0.1,0,0,0-0.1,0s0,0-0.1,0L14.4,10l-6.3,4.9c-0.2,0.1-0.3,0.3-0.3,0.6v10.6c0,0.4,0.3,0.6,0.6,0.6h5.6v14.4
		c0,0.4,0.3,0.6,0.6,0.6h20.6c0.4,0,0.6-0.3,0.6-0.6V26.9h5.6c0.4,0,0.6-0.3,0.6-0.6V15.5C42.3,15.4,42.2,15.1,42.1,15z M24.6,8.5
		h0.7v1.6h-0.7V8.5z M21,8.5h2.2v2.2c0,0.4,0.3,0.6,0.6,0.6H26c0.4,0,0.6-0.3,0.6-0.6V8.5h2.2v1.8c0,2.2-1.8,4-4,4s-4-1.8-4-4
		L21,8.5L21,8.5z M14.1,25.6H9.1v-0.7h4.9C14.1,24.9,14.1,25.6,14.1,25.6z M34.6,40.4H15.4v-0.7h19.3V40.4z M41,25.6H36v-0.7H41
		V25.6z M41,23.5H36v-0.1c0-0.4-0.3-0.6-0.6-0.6c-0.4,0-0.6,0.3-0.6,0.6v15H15.4V18.8c0-0.4-0.3-0.6-0.6-0.6c-0.4,0-0.6,0.3-0.6,0.6
		v4.6H9.1V16l4.9-3.9v1.4c0,0.4,0.3,0.6,0.6,0.6c0.4,0,0.6-0.3,0.6-0.6v-2.4l4.4-2v1.4c0,3,2.4,5.3,5.3,5.3s5.3-2.4,5.3-5.3V8.9
		l4.4,2v7c0,0.4,0.3,0.6,0.6,0.6s0.6-0.3,0.6-0.6v-6l4.9,3.9L41,23.5z"/>
	<path class="st0" d="M30.9,24.7c-0.1-0.2-0.3-0.4-0.6-0.4h-2.3l1.9-4.6c0.1-0.2,0.1-0.4-0.1-0.6c-0.1-0.2-0.3-0.3-0.6-0.3h-8.8
		c-0.3,0-0.5,0.2-0.6,0.4l-2.7,7.7c-0.1,0.2,0,0.4,0.1,0.6c0.1,0.2,0.3,0.3,0.5,0.3h2.6l-1.2,4.7c-0.1,0.2,0,0.4,0.1,0.6
		s0.3,0.3,0.5,0.3h3.4c0.1,0,0.2,0,0.3-0.1l7-7.7C30.9,25.2,31,24.9,30.9,24.7z M18.7,26.5l2.2-6.5h2.1l-2.2,6.5H18.7z M22.8,32
		h-2.1l1.1-4.3h2.1L22.8,32z M24.4,30.5l0.8-3.1c0.1-0.2,0-0.4-0.1-0.6c-0.1-0.2-0.3-0.3-0.5-0.3h-2.5l2.2-6.5h4l-1.9,4.6
		c-0.1,0.2-0.1,0.4,0.1,0.6c0.1,0.2,0.3,0.3,0.6,0.3H29L24.4,30.5z"/>
</g>
</svg>
